<?xml version="1.0" encoding="utf-8"?>
<!-- Generator: Adobe Illustrator 15.0.0, SVG Export Plug-In . SVG Version: 6.00 Build 0)  -->
<!DOCTYPE svg PUBLIC "-//W3C//DTD SVG 1.1//EN" "http://www.w3.org/Graphics/SVG/1.1/DTD/svg11.dtd">
<svg version="1.1" id="Layer_2" xmlns="http://www.w3.org/2000/svg" xmlns:xlink="http://www.w3.org/1999/xlink" x="0px" y="0px"
	 width="174.437px" height="232.569px" viewBox="0 0 174.437 232.569" enable-background="new 0 0 174.437 232.569"
	 xml:space="preserve">
<g>
	<g>
		<linearGradient id="SVGID_1_" gradientUnits="userSpaceOnUse" x1="52.9478" y1="129.7588" x2="62.187" y2="129.7588">
			<stop  offset="0" style="stop-color:#000000"/>
			<stop  offset="1" style="stop-color:#8B8B8B"/>
		</linearGradient>
		<path fill="url(#SVGID_1_)" d="M52.948,129.568c0,0,1.034-4.418,5.05-2.926c4.018,1.49,4.189,3.385,4.189,3.385l-3.788,3.155
			L52.948,129.568z"/>
		<g display="none" opacity="0.4">
			
				<image display="inline" overflow="visible" width="235" height="154" xlink:href="21C807CF.png"  transform="matrix(1 0 0 1 -46.563 121)">
			</image>
		</g>
		<linearGradient id="SVGID_2_" gradientUnits="userSpaceOnUse" x1="93.7222" y1="53.5659" x2="72.4536" y2="150.338">
			<stop  offset="0" style="stop-color:#FFFFFF"/>
			<stop  offset="1" style="stop-color:#666666"/>
		</linearGradient>
		<path fill="url(#SVGID_2_)" d="M74.594,135.861c8.979,2.388,16.737,2.809,23.691,0.699l0.164,0.057
			c0.008,0.018,0.014,0.034,0.014,0.034s-1.789-3.459-0.652-6.68c13.37,2.42,22.16-3.567,22.639-4.508c0,0,0.374-6.012,4.868-18.718
			c3.046-8.614,3.169-14.035,6.142-31.551c3.127-48.322-34.013-50.417-39.356-51.137c-22.979,2.01-42.007,12.53-43.706,39.485
			c-1.702,26.955,10.213,39.53,10.213,52.294c0,5.088-0.747,8.833-1.641,11.518C60.385,131.601,68.936,133.964,74.594,135.861z"/>
		<linearGradient id="SVGID_3_" gradientUnits="userSpaceOnUse" x1="54.2925" y1="95.4424" x2="97.6669" y2="268.938">
			<stop  offset="0" style="stop-color:#E4E4E4"/>
			<stop  offset="0.1039" style="stop-color:#DEDEDE"/>
			<stop  offset="0.2367" style="stop-color:#CFCFCF"/>
			<stop  offset="0.3853" style="stop-color:#B4B4B4"/>
			<stop  offset="0.5453" style="stop-color:#909090"/>
			<stop  offset="0.7145" style="stop-color:#616161"/>
			<stop  offset="0.8888" style="stop-color:#282828"/>
			<stop  offset="1" style="stop-color:#000000"/>
		</linearGradient>
		<path fill="url(#SVGID_3_)" d="M146.617,186.68c0,0,2.695,10.729-10.921,18.162c-13.617,7.431-48.722,27.43-96.38,27.626
			c-0.888-0.006-17.968,1.077-28.936-3.707c-11.915-5.199-11.348-8.653-9.074-18.498l4.68-27.925c0,0,0-10.638,14.042-22.078
			c14.04-11.439,33.191-27.584,33.191-27.584s4.681-4.424,4.681-17.19c0-12.765-11.915-25.34-10.212-52.295
			c1.699-26.955,20.727-37.475,43.706-39.485c5.342,0.719,42.483,2.815,39.354,51.137c-2.971,17.515-3.095,22.937-6.141,31.548
			c-4.494,12.708-4.87,18.72-4.87,18.72c-0.477,0.939-9.037,6.652-22.411,4.229c-1.135,3.222,0.427,6.958,0.427,6.958l26.817,8.296
			c0,0,12.009,2.969,16.308,14.888C143.382,168.584,144.919,177.626,146.617,186.68z"/>
		<path fill="#B1B1B1" d="M97.532,133.929c-6.636,3.176-13.858,2.961-22.837,0.573c-5.657-1.896-14.846-3.792-18.263-8.036
			c-0.899,2.698-2.094,5.156-2.695,5.935c3.007,4.104,10.961,7.003,18.142,9.201c14.621,3.915,24.074,1.82,26.391-4.849
			L97.532,133.929z"/>
		<linearGradient id="SVGID_4_" gradientUnits="userSpaceOnUse" x1="72.9526" y1="222.4063" x2="72.9526" y2="145.2896">
			<stop  offset="0" style="stop-color:#969696"/>
			<stop  offset="0.0204" style="stop-color:#9A9A9A"/>
			<stop  offset="0.1703" style="stop-color:#B7B7B7"/>
			<stop  offset="0.3318" style="stop-color:#CCCCCC"/>
			<stop  offset="0.5084" style="stop-color:#DCDCDC"/>
			<stop  offset="0.7113" style="stop-color:#E5E5E5"/>
			<stop  offset="1" style="stop-color:#E8E8E8"/>
		</linearGradient>
		<path fill="url(#SVGID_4_)" d="M98.563,137.592c-0.854,2.421-3.452,0.135-6.272,1.271c-4.768,1.92-11.418,5.988-20.419,3.543
			c-7.125-2.209-15.029-5.122-17.867-9.232c-0.331,0.428-0.549,0.64-0.549,0.64s-18.847,15.688-32.666,26.801
			C6.971,171.732,6.925,182.127,6.925,182.127L2.21,209.391c-2.27,9.608-2.842,12.979,8.819,18.114
			c10.737,4.723,27.489,3.74,28.358,3.75c46.732,0.017,81.244-19.368,94.629-26.568c13.383-7.202,10.789-17.698,10.789-17.698
			c-1.624-8.853-3.092-17.695-5.509-26.599c-4.161-11.667-15.923-14.618-15.923-14.618L98.563,137.592z"/>
		<defs>
			<filter id="Adobe_OpacityMaskFilter" filterUnits="userSpaceOnUse" x="3.89" y="182.463" width="141.067" height="47.478">
				
					<feColorMatrix  type="matrix" values="-1 0 0 0 1  0 -1 0 0 1  0 0 -1 0 1  0 0 0 1 0" color-interpolation-filters="sRGB" result="source"/>
			</filter>
		</defs>
		<mask maskUnits="userSpaceOnUse" x="3.89" y="182.463" width="141.067" height="47.478" id="SVGID_5_">
			<g filter="url(#Adobe_OpacityMaskFilter)">
				<linearGradient id="SVGID_6_" gradientUnits="userSpaceOnUse" x1="80.9136" y1="220.0986" x2="67.0889" y2="168.699">
					<stop  offset="0" style="stop-color:#FFFFFF"/>
					<stop  offset="1" style="stop-color:#000000"/>
				</linearGradient>
				<rect x="-28.208" y="170.47" fill="url(#SVGID_6_)" width="209.851" height="68.061"/>
			</g>
		</mask>
		<path opacity="0.3" mask="url(#SVGID_5_)" fill="#FFFFFF" d="M4.406,222.576c0,0-3.9-6.38,9.747-12.406
			c16.771-7.405,131.354-41.146,130.802-21.8c-0.532,18.61-66.926,43.311-115.382,41.474C6.177,228.957,4.406,222.576,4.406,222.576
			z"/>
		<defs>
			<filter id="Adobe_OpacityMaskFilter_1_" filterUnits="userSpaceOnUse" x="3.132" y="183.319" width="39.72" height="46.911">
				
					<feColorMatrix  type="matrix" values="-1 0 0 0 1  0 -1 0 0 1  0 0 -1 0 1  0 0 0 1 0" color-interpolation-filters="sRGB" result="source"/>
			</filter>
		</defs>
		<mask maskUnits="userSpaceOnUse" x="3.132" y="183.319" width="39.72" height="46.911" id="SVGID_7_">
			<g filter="url(#Adobe_OpacityMaskFilter_1_)">
				<linearGradient id="SVGID_8_" gradientUnits="userSpaceOnUse" x1="40.9331" y1="221.4854" x2="6.5493" y2="169.0234">
					<stop  offset="0" style="stop-color:#FFFFFF"/>
					<stop  offset="1" style="stop-color:#000000"/>
				</linearGradient>
				<rect x="-6.938" y="155.404" fill="url(#SVGID_8_)" width="72.313" height="96.417"/>
			</g>
		</mask>
		<path opacity="0.6" mask="url(#SVGID_7_)" fill="#FFFFFF" d="M8.038,183.319c0,0,29.499,4.056,34.814,43.464
			c-0.312,2.813-17.825,8.755-39.72-7.193C3.443,210.206,8.038,183.319,8.038,183.319z"/>
		<linearGradient id="SVGID_9_" gradientUnits="userSpaceOnUse" x1="50.4634" y1="135.6758" x2="50.4634" y2="135.6758">
			<stop  offset="0" style="stop-color:#FFFFFF"/>
			<stop  offset="1" style="stop-color:#000000"/>
		</linearGradient>
		<path fill="url(#SVGID_9_)" d="M50.463,135.676"/>
		<defs>
			<filter id="Adobe_OpacityMaskFilter_2_" filterUnits="userSpaceOnUse" x="91.131" y="80.872" width="28.186" height="27.186">
				
					<feColorMatrix  type="matrix" values="-1 0 0 0 1  0 -1 0 0 1  0 0 -1 0 1  0 0 0 1 0" color-interpolation-filters="sRGB" result="source"/>
			</filter>
		</defs>
		<mask maskUnits="userSpaceOnUse" x="91.131" y="80.872" width="28.186" height="27.186" id="SVGID_10_">
			<g filter="url(#Adobe_OpacityMaskFilter_2_)">
				<linearGradient id="SVGID_11_" gradientUnits="userSpaceOnUse" x1="109.2876" y1="94.7983" x2="132.1512" y2="63.6932">
					<stop  offset="0" style="stop-color:#FFFFFF"/>
					<stop  offset="1" style="stop-color:#000000"/>
				</linearGradient>
				<rect x="71.271" y="67.415" fill="url(#SVGID_11_)" width="76.034" height="54.767"/>
			</g>
		</mask>
		<path mask="url(#SVGID_10_)" fill="none" stroke="#000000" stroke-width="1.0634" d="M91.679,84.699c0,0,7.192-5.661,21.574-2.143
			c2.659,7.194,5.454,24.188,5.454,24.188s-4.222,0.782-6.411,0.782s-1.057-6.599-9.54-8.757
			C90.762,95.714,91.679,84.699,91.679,84.699z"/>
		<g>
			<image overflow="visible" width="89" height="79" xlink:href="21C807CD.png"  transform="matrix(1 0 0 1 57.437 48)">
			</image>
		</g>
		<defs>
			<filter id="Adobe_OpacityMaskFilter_3_" filterUnits="userSpaceOnUse" x="119.697" y="77.657" width="9.332" height="20.174">
				
					<feColorMatrix  type="matrix" values="-1 0 0 0 1  0 -1 0 0 1  0 0 -1 0 1  0 0 0 1 0" color-interpolation-filters="sRGB" result="source"/>
			</filter>
		</defs>
		<mask maskUnits="userSpaceOnUse" x="119.697" y="77.657" width="9.332" height="20.174" id="SVGID_12_">
			<g filter="url(#Adobe_OpacityMaskFilter_3_)">
				<linearGradient id="SVGID_13_" gradientUnits="userSpaceOnUse" x1="124.1987" y1="96.6714" x2="123.667" y2="63.1716">
					<stop  offset="0" style="stop-color:#FFFFFF"/>
					<stop  offset="1" style="stop-color:#000000"/>
				</linearGradient>
				<rect x="111.457" y="75.646" fill="url(#SVGID_13_)" width="25.256" height="27.65"/>
			</g>
		</mask>
		<path mask="url(#SVGID_12_)" fill="#8B8B8B" d="M122.931,97.831c0,0-5.631-12.354-2.033-15.951
			c3.597-3.598,8.131-4.223,8.131-4.223s-0.47,7.35-1.563,11.417C126.371,93.138,122.931,97.831,122.931,97.831z"/>
		<g>
			<image overflow="visible" width="80" height="78" xlink:href="21C807CA.png"  transform="matrix(1 0 0 1 83.437 44)">
			</image>
		</g>
		<path opacity="0.3" fill="#3F3F3F" d="M56,82.625c0,0,4.008-5.779,8.016,0.898c4.005,6.676,0.932,4.238,0.932,4.238
			s-4.006-6.935-6.41-5.136C56.132,84.423,56,82.625,56,82.625z"/>
		<path opacity="0.3" fill="#3F3F3F" d="M61.394,87.51c0,0,3.167,1.719,3.519,5.16s-0.468,8.288-1.291,4.065
			c-0.821-4.22-1.759-3.908-2.931-5.943C59.517,88.76,61.394,87.51,61.394,87.51z"/>
		<defs>
			<filter id="Adobe_OpacityMaskFilter_4_" filterUnits="userSpaceOnUse" x="61.626" y="104.241" width="35.438" height="31.438">
				
					<feColorMatrix  type="matrix" values="-1 0 0 0 1  0 -1 0 0 1  0 0 -1 0 1  0 0 0 1 0" color-interpolation-filters="sRGB" result="source"/>
			</filter>
		</defs>
		<mask maskUnits="userSpaceOnUse" x="61.626" y="104.241" width="35.438" height="31.438" id="SVGID_14_">
			<g filter="url(#Adobe_OpacityMaskFilter_4_)">
				<linearGradient id="SVGID_15_" gradientUnits="userSpaceOnUse" x1="62.5054" y1="104.6841" x2="128.7022" y2="140.0422">
					<stop  offset="0" style="stop-color:#FFFFFF"/>
					<stop  offset="1" style="stop-color:#000000"/>
				</linearGradient>
				<rect x="57.222" y="96.917" fill="url(#SVGID_15_)" width="64.602" height="44.397"/>
			</g>
		</mask>
		<path mask="url(#SVGID_14_)" d="M61.626,104.241c0,0,3.6,2.033,7.039,0.47c3.285,7.036,11.719,21.618,28.138,24.591
			c-0.382,3.213,0.261,6.218,0.261,6.218c-1.537,1.467-18.252-7.079-29.023-29.087C66.476,107.056,65.226,107.056,61.626,104.241z"
			/>
		<defs>
			<filter id="Adobe_OpacityMaskFilter_5_" filterUnits="userSpaceOnUse" x="73.148" y="57.722" width="27.313" height="68.778">
				
					<feColorMatrix  type="matrix" values="-1 0 0 0 1  0 -1 0 0 1  0 0 -1 0 1  0 0 0 1 0" color-interpolation-filters="sRGB" result="source"/>
			</filter>
		</defs>
		<mask maskUnits="userSpaceOnUse" x="73.148" y="57.722" width="27.313" height="68.778" id="SVGID_16_">
			<g filter="url(#Adobe_OpacityMaskFilter_5_)">
				<linearGradient id="SVGID_17_" gradientUnits="userSpaceOnUse" x1="94.3237" y1="105.5522" x2="47.8879" y2="109.4513">
					<stop  offset="0" style="stop-color:#FFFFFF"/>
					<stop  offset="1" style="stop-color:#000000"/>
				</linearGradient>
				<rect x="34.536" y="47.112" fill="url(#SVGID_17_)" width="122.648" height="116.624"/>
			</g>
		</mask>
		<path mask="url(#SVGID_16_)" fill="#B1B1B1" d="M73.148,87.926c0,0,2.294,34.195,27.313,38.574c0,0-13.762-10.008-15.014-27.522
			c-1.249-17.516,5.007-29.4,4.799-36.49c-0.21-7.088-3.337-4.171-3.337-4.171s-5.423,9.593-8.968,13.972
			C76.277,78.96,75.649,87.092,73.148,87.926z"/>
		<defs>
			<filter id="Adobe_OpacityMaskFilter_6_" filterUnits="userSpaceOnUse" x="118.675" y="43.845" width="10.347" height="35.259">
				
					<feColorMatrix  type="matrix" values="-1 0 0 0 1  0 -1 0 0 1  0 0 -1 0 1  0 0 0 1 0" color-interpolation-filters="sRGB" result="source"/>
			</filter>
		</defs>
		<mask maskUnits="userSpaceOnUse" x="118.675" y="43.845" width="10.347" height="35.259" id="SVGID_18_">
			<g filter="url(#Adobe_OpacityMaskFilter_6_)">
				<linearGradient id="SVGID_19_" gradientUnits="userSpaceOnUse" x1="113.2407" y1="61.8271" x2="144.4339" y2="54.3832">
					<stop  offset="0" style="stop-color:#FFFFFF"/>
					<stop  offset="1" style="stop-color:#000000"/>
				</linearGradient>
				<rect x="106.639" y="40.632" fill="url(#SVGID_19_)" width="31.902" height="37.929"/>
			</g>
		</mask>
		<path mask="url(#SVGID_18_)" fill="#B1B1B1" d="M127.152,55.399c0,0,2.921,11.467,1.462,18.141
			c-2.296,1.25-6.675,3.335-9.178,5.42c-2.501,2.084,2.195-18.935-0.445-35.115C124.615,45.796,126.565,47.861,127.152,55.399z"/>
		<defs>
			<filter id="Adobe_OpacityMaskFilter_7_" filterUnits="userSpaceOnUse" x="114.225" y="83.614" width="9.195" height="22.869">
				
					<feColorMatrix  type="matrix" values="-1 0 0 0 1  0 -1 0 0 1  0 0 -1 0 1  0 0 0 1 0" color-interpolation-filters="sRGB" result="source"/>
			</filter>
		</defs>
		<mask maskUnits="userSpaceOnUse" x="114.225" y="83.614" width="9.195" height="22.869" id="SVGID_20_">
			<g filter="url(#Adobe_OpacityMaskFilter_7_)">
				<linearGradient id="SVGID_21_" gradientUnits="userSpaceOnUse" x1="115.1323" y1="80.5879" x2="120.7153" y2="106.9078">
					<stop  offset="0" style="stop-color:#FFFFFF"/>
					<stop  offset="1" style="stop-color:#000000"/>
				</linearGradient>
				<rect x="98.431" y="69.798" fill="url(#SVGID_21_)" width="39.878" height="52.108"/>
			</g>
		</mask>
		<path mask="url(#SVGID_20_)" fill="#FFFFFF" d="M117.977,83.965c0,0,5.178,17.47,5.443,20.129c-0.837,2.294-3.774,2.39-3.774,2.39
			l-5.421-21.269C114.225,85.214,115.896,82.714,117.977,83.965z"/>
		<path opacity="0.3" fill="#FFFFFF" d="M59.637,138.176c0,0,29.193,17.1,39.618,0.419c3.126,1.668,7.401,3.752,7.401,3.752
			s-3.752-1.666-5.631-0.313C99.151,143.39,83.616,155.38,59.637,138.176z"/>
		<path opacity="0.4" fill="#3F3F3F" d="M8.691,181.379c0,0,9.584-0.179,18.814,9.21c-4.045-5.736-16.826-12.596-19.002-11.346
			C8.199,180.297,8.691,181.379,8.691,181.379z"/>
		<defs>
			<filter id="Adobe_OpacityMaskFilter_8_" filterUnits="userSpaceOnUse" x="58.437" y="49" width="89" height="79">
				
					<feColorMatrix  type="matrix" values="-1 0 0 0 1  0 -1 0 0 1  0 0 -1 0 1  0 0 0 1 0" color-interpolation-filters="sRGB" result="source"/>
			</filter>
		</defs>
		<mask maskUnits="userSpaceOnUse" x="58.437" y="49" width="89" height="79" id="SVGID_22_">
			<g filter="url(#Adobe_OpacityMaskFilter_8_)">
				<linearGradient id="SVGID_23_" gradientUnits="userSpaceOnUse" x1="109.312" y1="90.2383" x2="96.2844" y2="66.0441">
					<stop  offset="0" style="stop-color:#FFFFFF"/>
					<stop  offset="1" style="stop-color:#000000"/>
				</linearGradient>
				<rect x="90.187" y="76.71" fill="url(#SVGID_23_)" width="34.562" height="20.207"/>
			</g>
		</mask>
		<g opacity="0.7" mask="url(#SVGID_22_)">
			<g>
				<image overflow="visible" width="89" height="79" xlink:href="21C807D6.png"  transform="matrix(1 0 0 1 58.437 49)">
				</image>
			</g>
		</g>
		<defs>
			<filter id="Adobe_OpacityMaskFilter_9_" filterUnits="userSpaceOnUse" x="83.437" y="44" width="80" height="78">
				
					<feColorMatrix  type="matrix" values="-1 0 0 0 1  0 -1 0 0 1  0 0 -1 0 1  0 0 0 1 0" color-interpolation-filters="sRGB" result="source"/>
			</filter>
		</defs>
		<mask maskUnits="userSpaceOnUse" x="83.437" y="44" width="80" height="78" id="SVGID_24_">
			<g filter="url(#Adobe_OpacityMaskFilter_9_)">
				<linearGradient id="SVGID_25_" gradientUnits="userSpaceOnUse" x1="127.0845" y1="88.3965" x2="126.5527" y2="67.9247">
					<stop  offset="0" style="stop-color:#FFFFFF"/>
					<stop  offset="1" style="stop-color:#000000"/>
				</linearGradient>
				<rect x="115.976" y="76.71" fill="url(#SVGID_25_)" width="22.066" height="17.548"/>
			</g>
		</mask>
		<g opacity="0.7" mask="url(#SVGID_24_)">
			<g>
				<image overflow="visible" width="80" height="78" xlink:href="21C807D9.png"  transform="matrix(1 0 0 1 83.437 44)">
				</image>
			</g>
		</g>
		<defs>
			<filter id="Adobe_OpacityMaskFilter_10_" filterUnits="userSpaceOnUse" x="101.104" y="108.347" width="20.987" height="19.679">
				
					<feColorMatrix  type="matrix" values="-1 0 0 0 1  0 -1 0 0 1  0 0 -1 0 1  0 0 0 1 0" color-interpolation-filters="sRGB" result="source"/>
			</filter>
		</defs>
		<mask maskUnits="userSpaceOnUse" x="101.104" y="108.347" width="20.987" height="19.679" id="SVGID_26_">
			<g filter="url(#Adobe_OpacityMaskFilter_10_)">
				<linearGradient id="SVGID_27_" gradientUnits="userSpaceOnUse" x1="111.6646" y1="118.2686" x2="133.9965" y2="148.5761">
					<stop  offset="0" style="stop-color:#FFFFFF"/>
					<stop  offset="1" style="stop-color:#000000"/>
				</linearGradient>
				<rect x="87.264" y="95.055" fill="url(#SVGID_27_)" width="46.523" height="43.334"/>
			</g>
		</mask>
		<path mask="url(#SVGID_26_)" fill="#3F3F3F" d="M122.091,108.347c0,0-8.241,6.115-17.016,5.051
			c-5.85-1.594-5.316,14.092,2.126,14.623c2.128,0.152,11.078-3.342,11.433-3.723C118.634,124.299,120.231,113.133,122.091,108.347z
			"/>
		<path opacity="0.5" fill="#FFFFFF" d="M47.829,211.058c3.722,6.558,4.962,14.534,5.317,19.142
			c2.835,0.353,46.524-5.097,85.339-30.841c-5.671,5.317-41.206,24.372-82.681,29.423C54.742,226.299,53.544,218.278,47.829,211.058
			z"/>
		<path opacity="0.6" fill="#3F3F3F" d="M50.909,230.529l-3.276-0.757c-0.441-3.766-1.999-15.133-5.225-20.593
			c-3.9-6.602,6.412,8.541,7.763,18.361L50.909,230.529z"/>
		<defs>
			<filter id="Adobe_OpacityMaskFilter_11_" filterUnits="userSpaceOnUse" x="10.007" y="141.148" width="40.125" height="86.746">
				
					<feColorMatrix  type="matrix" values="-1 0 0 0 1  0 -1 0 0 1  0 0 -1 0 1  0 0 0 1 0" color-interpolation-filters="sRGB" result="source"/>
			</filter>
		</defs>
		<mask maskUnits="userSpaceOnUse" x="10.007" y="141.148" width="40.125" height="86.746" id="SVGID_28_">
			<g filter="url(#Adobe_OpacityMaskFilter_11_)">
				<linearGradient id="SVGID_29_" gradientUnits="userSpaceOnUse" x1="34.5571" y1="200.6328" x2="12.2253" y2="142.854">
					<stop  offset="0" style="stop-color:#FFFFFF"/>
					<stop  offset="1" style="stop-color:#000000"/>
				</linearGradient>
				<rect x="-17.217" y="133.072" fill="url(#SVGID_29_)" width="83.656" height="83.656"/>
			</g>
		</mask>
		<path opacity="0.6" mask="url(#SVGID_28_)" fill="#FFFFFF" d="M46.293,141.148c0,0-36.792,25.289-36.281,36.593
			c0,0,36.367,6.992,40.12,50.153c-1.749-29.678-11.698-43.954-28.713-52.816C14.889,173.071,21.466,162.838,46.293,141.148z"/>
		<path fill="#FFFFFF" d="M10.431,177.205c0,0-0.59-10.7,35.063-35.526c-11.669,8.142-30.544,25.424-33.735,35.262L10.431,177.205z"
			/>
		<polygon fill="#FFFFFF" points="7.507,184.116 2.455,219.741 9.101,184.116 		"/>
		<path opacity="0.6" fill="#3F3F3F" d="M143.357,196.274l-2.068,2.01c0.314-3.777-0.05-16.867-2.125-22.862
			c-2.512-7.243,4.585,9.646,3.956,19.538L143.357,196.274z"/>
		<defs>
			<filter id="Adobe_OpacityMaskFilter_12_" filterUnits="userSpaceOnUse" x="103.217" y="140.052" width="42.091" height="52.929">
				
					<feColorMatrix  type="matrix" values="-1 0 0 0 1  0 -1 0 0 1  0 0 -1 0 1  0 0 0 1 0" color-interpolation-filters="sRGB" result="source"/>
			</filter>
		</defs>
		<mask maskUnits="userSpaceOnUse" x="103.217" y="140.052" width="42.091" height="52.929" id="SVGID_30_">
			<g filter="url(#Adobe_OpacityMaskFilter_12_)">
				<linearGradient id="SVGID_31_" gradientUnits="userSpaceOnUse" x1="113.3647" y1="178.6914" x2="148.7232" y2="138.8134">
					<stop  offset="0" style="stop-color:#FFFFFF"/>
					<stop  offset="1" style="stop-color:#000000"/>
				</linearGradient>
				<rect x="73.439" y="124.831" fill="url(#SVGID_31_)" width="99.695" height="85.339"/>
			</g>
		</mask>
		<path mask="url(#SVGID_30_)" fill="#FFFFFF" d="M103.217,140.052c0,0,28.179,6.57,32.922,12.931
			c5.949,7.972,8.994,33.617,8.994,33.617s0.812,3.043-1.063,6.381c-0.836-5.005-1.596-32.082-14.082-40.416
			C121.076,146.612,103.217,140.052,103.217,140.052z"/>
		<g>
			<g>
				<image overflow="visible" width="79" height="79" xlink:href="21C807DA.png"  transform="matrix(1 0 0 1 95.437 114)">
				</image>
			</g>
			<circle fill-rule="evenodd" clip-rule="evenodd" fill="#FFFFFF" cx="134.755" cy="153.552" r="1.643"/>
		</g>
		<path fill="#FFFFFF" d="M72.818,105.6c0,0,10.282,22.686,35.271,22.509c-21.093,0-26.23-5.848-36.335-20.027
			C69.102,104.358,72.818,105.6,72.818,105.6z"/>
		<defs>
			<filter id="Adobe_OpacityMaskFilter_13_" filterUnits="userSpaceOnUse" x="95.859" y="56.328" width="16.483" height="67.254">
				<feColorMatrix  type="matrix" values="1 0 0 0 0  0 1 0 0 0  0 0 1 0 0  0 0 0 1 0"/>
			</filter>
		</defs>
		<mask maskUnits="userSpaceOnUse" x="95.859" y="56.328" width="16.483" height="67.254" id="SVGID_32_">
			<g filter="url(#Adobe_OpacityMaskFilter_13_)">
				<radialGradient id="SVGID_33_" cx="102.2407" cy="91.7759" r="32.9665" gradientUnits="userSpaceOnUse">
					<stop  offset="0" style="stop-color:#FFFFFF"/>
					<stop  offset="1" style="stop-color:#000000"/>
				</radialGradient>
				<rect x="89.48" y="46.935" opacity="0.46" fill="url(#SVGID_33_)" width="25.521" height="89.683"/>
			</g>
		</mask>
		<path mask="url(#SVGID_32_)" fill="#FFFFFF" d="M112.342,80.433c0-9.217-3.72-21.623-0.886-23.396
			c-4.255,0.71-15.598-0.709-15.598-0.709s3.19,18.433,1.418,23.396C102.772,78.662,108.623,78.836,112.342,80.433z M98.445,98.83
			c1.271,8.942,1.97,20.828,1.443,24.208c3.238,3.281,6.149-8.97,8.837-17.393c0.082-0.688,0.332-5.628,0.397-6.257
			C105.457,96.46,102.696,101.453,98.445,98.83z"/>
		<defs>
			<filter id="Adobe_OpacityMaskFilter_14_" filterUnits="userSpaceOnUse" x="57.224" y="104.714" width="7.246" height="25.881">
				
					<feColorMatrix  type="matrix" values="-1 0 0 0 1  0 -1 0 0 1  0 0 -1 0 1  0 0 0 1 0" color-interpolation-filters="sRGB" result="source"/>
			</filter>
		</defs>
		<mask maskUnits="userSpaceOnUse" x="57.224" y="104.714" width="7.246" height="25.881" id="SVGID_34_">
			<g filter="url(#Adobe_OpacityMaskFilter_14_)">
				<linearGradient id="SVGID_35_" gradientUnits="userSpaceOnUse" x1="66.7183" y1="118.9727" x2="53.6018" y2="116.6687">
					<stop  offset="0" style="stop-color:#FFFFFF"/>
					<stop  offset="1" style="stop-color:#000000"/>
				</linearGradient>
				<rect x="41.803" y="95.144" fill="url(#SVGID_35_)" width="32.789" height="44.665"/>
			</g>
		</mask>
		<path mask="url(#SVGID_34_)" fill="#B1B1B1" d="M57.224,105.956c0,0,3.365,12.583,0.708,20.028
			c-0.418,1.075,4.972,3.871,6.026,4.608c1.772,0.354-1.508-21.269-3.014-25.877C59.704,105.69,58.64,106.133,57.224,105.956z"/>
		<path opacity="0.6" fill="#FFFFFF" d="M55.621,80.02c0,0,6.112-5.806,11.01,4.667c-0.272-2.778-3.28-11.7-11.061-5.196
			L55.621,80.02z"/>
		<path fill="#FFFFFF" d="M59.734,101.401c0,0,3.984,4.408,7.543,1.272C66.296,103,64.304,104.208,59.734,101.401z"/>
		<defs>
			<filter id="Adobe_OpacityMaskFilter_15_" filterUnits="userSpaceOnUse" x="46.236" y="132.256" width="59.314" height="35.067">
				<feColorMatrix  type="matrix" values="1 0 0 0 0  0 1 0 0 0  0 0 1 0 0  0 0 0 1 0"/>
			</filter>
		</defs>
		<mask maskUnits="userSpaceOnUse" x="46.236" y="132.256" width="59.314" height="35.067" id="SVGID_36_">
			<g filter="url(#Adobe_OpacityMaskFilter_15_)">
				<linearGradient id="SVGID_37_" gradientUnits="userSpaceOnUse" x1="75.231" y1="165.0273" x2="75.231" y2="140.6995">
					<stop  offset="0" style="stop-color:#FFFFFF"/>
					<stop  offset="1" style="stop-color:#000000"/>
				</linearGradient>
				<rect x="34.609" y="124.94" fill="url(#SVGID_37_)" width="81.244" height="43.606"/>
			</g>
		</mask>
		<path mask="url(#SVGID_36_)" fill="#FFFFFF" d="M80.51,159.52c7.803,3.519,18.667,7.804,18.667,7.804s8.563-23.123,5.837-28.421
			l-6.757-2.229c-0.853,2.42-3.451,0.135-6.271,1.271c-4.769,1.921-11.419,5.986-20.42,3.543
			c-7.128-2.209-15.032-5.122-17.868-9.232c-0.33,0.428-0.547,0.641-0.547,0.641s-2.753,2.29-6.916,5.734
			C48.993,140.95,62.361,151.771,80.51,159.52z"/>
		<linearGradient id="SVGID_38_" gradientUnits="userSpaceOnUse" x1="95.7339" y1="144.5244" x2="95.7339" y2="131.3661">
			<stop  offset="0" style="stop-color:#E4E4E4"/>
			<stop  offset="0.3813" style="stop-color:#EAEAEA"/>
			<stop  offset="0.8672" style="stop-color:#F9F9F9"/>
			<stop  offset="1" style="stop-color:#FFFFFF"/>
		</linearGradient>
		<path fill="url(#SVGID_38_)" d="M90.455,137.792c4.371,2.384,7.338,5.179,8.262,8.569c0,0,2.296-5.661,2.296-8.416
			c-0.458-1.071-2.906-3.825-2.906-3.825S94.282,137.64,90.455,137.792z"/>
		<g>
			<path fill="#BDBDBD" d="M98.253,133.781c-0.037,0.034-3.748,3.408-7.357,3.552l-1.659,0.067l1.458,0.794
				c4.567,2.493,7.196,5.204,8.038,8.288l0.359,1.311l0.51-1.258c0.096-0.236,2.328-5.778,2.328-8.59v-0.093l-0.036-0.089
				c-0.475-1.105-2.73-3.661-2.986-3.948l-0.311-0.349L98.253,133.781z M98.516,134.767c0.77,0.886,2.125,2.52,2.487,3.285
				c-0.038,1.958-1.213,5.379-1.853,7.095c-1.069-2.602-3.349-4.935-6.925-7.074C95.072,137.479,97.62,135.521,98.516,134.767z"/>
		</g>
		<linearGradient id="SVGID_39_" gradientUnits="userSpaceOnUse" x1="69.6812" y1="150.251" x2="70.2931" y2="135.5616">
			<stop  offset="0" style="stop-color:#E4E4E4"/>
			<stop  offset="0.3813" style="stop-color:#EAEAEA"/>
			<stop  offset="0.8672" style="stop-color:#F9F9F9"/>
			<stop  offset="1" style="stop-color:#FFFFFF"/>
		</linearGradient>
		<path fill="url(#SVGID_39_)" d="M56.182,126.24c0,0-6.274,0.918,6.578,5.661s22.033,6.272,27.694,5.662
			c-0.459,1.528-3.06,11.782-3.06,11.782s-34.887-6.428-37.334-13.771C49.908,133.738,52.815,126.699,56.182,126.24z"/>
		<g>
			<path fill="#BDBDBD" d="M54.493,126.427c-3.067,1.589-5.354,7.288-5.354,9.245c0,0.062,0.002,0.116,0.007,0.172l0.004,0.054
				l0.018,0.052c2.507,7.513,36.251,13.813,37.687,14.078l0.423,0.076l0.105-0.415c0.024-0.103,2.604-10.261,3.053-11.766l0.2-0.661
				l-0.687,0.073c-4.312,0.468-12.577-0.131-27.486-5.635c-7.491-2.765-7.811-4.015-7.811-4.208c0-0.006,0.002-0.019,0-0.015
				c-0.096-0.722,0.608-1.123,1.813-1.15C56.159,126.116,55.657,126.043,54.493,126.427z M50.054,135.642
				c0-1.425,1.663-5.627,3.806-7.63c0.416,0.932,2.17,2.292,8.282,4.55c11.544,4.26,20.918,6.214,27.24,5.722
				c-0.632,2.301-2.362,9.098-2.784,10.76c-9.89-1.855-34.546-7.626-36.542-13.352C50.056,135.676,50.054,135.66,50.054,135.642z"/>
		</g>
		<path opacity="0.2" fill="#B1B1B1" d="M54.154,129.166c0,0-2.008,0.229-3.614,6.313c0.919,1.778,5.737,4.934,13.656,7.401
			c-0.133-2.262-0.145-8.859-2.869-9.927C57.081,131.289,54.154,129.166,54.154,129.166z"/>
		<path opacity="0.9" fill="none" stroke="#BDBDBD" stroke-width="0.9181" stroke-linecap="round" d="M46.442,138.785
			c2.757,2.319,16.125,13.14,34.275,20.889c7.802,3.52,18.665,7.804,18.665,7.804s8.563-23.124,5.838-28.423"/>
		<path opacity="0.6" fill="#FFFFFF" d="M134.321,151.682c0,0,5.848,11.699-58.488,35.625c0,0,53.349-17.902,61.146-30.663
			C137.688,155.936,134.321,151.682,134.321,151.682z"/>
		<defs>
			<filter id="Adobe_OpacityMaskFilter_16_" filterUnits="userSpaceOnUse" x="35.953" y="160.898" width="108.492" height="68.059">
				
					<feColorMatrix  type="matrix" values="-1 0 0 0 1  0 -1 0 0 1  0 0 -1 0 1  0 0 0 1 0" color-interpolation-filters="sRGB" result="source"/>
			</filter>
		</defs>
		<mask maskUnits="userSpaceOnUse" x="35.953" y="160.898" width="108.492" height="68.059" id="SVGID_40_">
			<g filter="url(#Adobe_OpacityMaskFilter_16_)">
				<linearGradient id="SVGID_41_" gradientUnits="userSpaceOnUse" x1="101.2769" y1="207.2305" x2="86.3889" y2="166.1116">
					<stop  offset="0" style="stop-color:#FFFFFF"/>
					<stop  offset="1" style="stop-color:#000000"/>
				</linearGradient>
				<rect x="22.128" y="151.327" fill="url(#SVGID_41_)" width="147.463" height="81.885"/>
			</g>
		</mask>
		<path opacity="0.5" mask="url(#SVGID_40_)" fill="#FFFFFF" d="M35.953,193.156c0,0,7.975-13.292,29.245-7.977
			c0,0,48.387,10.811,74.264-24.281c1.417,6.026,5.315,19.495,4.961,26.232c-0.353,6.733-14.53,29.776-89.857,41.826
			C52.26,220.096,48.45,207.778,35.953,193.156z"/>
		<path opacity="0.9" fill="none" stroke="#BDBDBD" stroke-width="0.9181" stroke-linecap="round" d="M99.382,167.478
			c0,0,11.27,37.485,11.576,48.042"/>
		<path opacity="0.9" fill="none" stroke="#BDBDBD" stroke-width="0.459" stroke-linecap="round" d="M90.274,139.286l0.689,6.902
			c0,0,7.595,15.417,8.054,20.478"/>
		<g>
			<path fill="#B1B1B1" d="M116.544,116.752c0,0-2.144,0.308-4.667,3.98c2.064,0.458,3.671,0.688,5.508-1.607
				C119.221,116.831,119.757,117.289,116.544,116.752z"/>
			
				<linearGradient id="SVGID_42_" gradientUnits="userSpaceOnUse" x1="115.4253" y1="110.6255" x2="114.5249" y2="108.9751" gradientTransform="matrix(0.9994 -0.0358 0.0358 0.9994 -3.3113 12.9673)">
				<stop  offset="0" style="stop-color:#FFFFFF"/>
				<stop  offset="1" style="stop-color:#000000"/>
			</linearGradient>
			<path fill="url(#SVGID_42_)" d="M114.171,119.699c0,0,1.377-1.721,3.214-1.377"/>
		</g>
		<linearGradient id="SVGID_43_" gradientUnits="userSpaceOnUse" x1="41.4536" y1="118.834" x2="123.4662" y2="-2.9609">
			<stop  offset="0" style="stop-color:#FFCB1F"/>
			<stop  offset="1" style="stop-color:#B0804A"/>
		</linearGradient>
		<path fill="url(#SVGID_43_)" d="M133.068,47.136c-2.554-7.664-6.868-21.582-33.891-26.471c-15.118-2.736-34.387-3.529-48.658,14
			c-5.467,6.713-13.312,22.34-9.487,37.181c5.219,20.242,10.289,38.725-1.416,54.562c5.014,4.424,21.309-3.38,21.309-3.38
			c3.737-6.513,4.822-13.515-0.301-19.254c0,0-12.926-15.221-5.837-24.813c7.09-9.591,15.175,8.886,15.175,8.886
			s1.964,0.432,3.551-1.998c0.822-2.739,1.662-10.544,8.873-11.312c10.425-1.11,41.531-5.275,35.573-31.496
			c0,0,4.171,5.394,0.804,14.574c2.359-3.982,4.707-9.596,2.954-13.558c4.878,2.281,7.145,7.865,8.172,13.848
			C132.773,55.242,134.362,51.016,133.068,47.136z"/>
		<linearGradient id="SVGID_44_" gradientUnits="userSpaceOnUse" x1="112.4849" y1="76.79" x2="81.8531" y2="47.7827">
			<stop  offset="0" style="stop-color:#FFFFFF"/>
			<stop  offset="1" style="stop-color:#000000"/>
		</linearGradient>
		<path opacity="0.4" fill="url(#SVGID_44_)" d="M105.45,33.517c0,0,19.265,14.276-0.229,29.148
			c-20.813,13.597-22.722,5.661-34.35,11.476C70.871,74.141,78.826,31.222,105.45,33.517z"/>
		<linearGradient id="SVGID_45_" gradientUnits="userSpaceOnUse" x1="127.0933" y1="43.6636" x2="126.8028" y2="59.9092">
			<stop  offset="0" style="stop-color:#FFFFFF"/>
			<stop  offset="1" style="stop-color:#000000"/>
		</linearGradient>
		<path fill="url(#SVGID_45_)" d="M130.008,56.392c0,0,3.749-1.837,2.296-8.186c-1.455-6.349-5.969-10.328-5.969-10.328
			s-1.758,3.825-4.896,4.36C124.881,44.457,130.622,49.888,130.008,56.392z"/>
		<linearGradient id="SVGID_46_" gradientUnits="userSpaceOnUse" x1="97.1646" y1="99.5977" x2="72.3442" y2="45.4165">
			<stop  offset="0" style="stop-color:#FFFFFF"/>
			<stop  offset="1" style="stop-color:#000000"/>
		</linearGradient>
		<path opacity="0.6" fill="url(#SVGID_46_)" d="M47.802,89.518c0,0,1.607-26.394,16.984-13.083c3.443,5.049,8.033,1.378,9.64-0.688
			c3.451-5.438,13.082-2.869,24.328-7.115c21.021-7.936,32.443-39.037-19.508-43.378C58.277,23.045,29.908,44.379,47.802,89.518z"/>
		<linearGradient id="SVGID_47_" gradientUnits="userSpaceOnUse" x1="69.5122" y1="116.2041" x2="49.8084" y2="106.3522">
			<stop  offset="0" style="stop-color:#FFFFFF"/>
			<stop  offset="1" style="stop-color:#000000"/>
		</linearGradient>
		<path opacity="0.4" fill="url(#SVGID_47_)" d="M51,88.872c0,0,2.065,10.169,8.898,17.003c6.833,6.833-1.113,16.684-1.113,16.684
			l-7.078,2.819C51.708,125.378,58.866,112.878,51,88.872z"/>
		<linearGradient id="SVGID_48_" gradientUnits="userSpaceOnUse" x1="50.4819" y1="105.6963" x2="35.639" y2="159.8649">
			<stop  offset="0" style="stop-color:#FFFFFF"/>
			<stop  offset="1" style="stop-color:#000000"/>
		</linearGradient>
		<path opacity="0.5" fill="url(#SVGID_48_)" d="M47.93,93.609c0,0,4.167,20.701-6.38,32.551c2.084,0.779,5.469,0.779,9.114-0.392
			C53.399,118.998,55.22,104.806,47.93,93.609z"/>
		<linearGradient id="SVGID_49_" gradientUnits="userSpaceOnUse" x1="127.5269" y1="39.979" x2="83.9193" y2="81.9034">
			<stop  offset="0" style="stop-color:#FFFFFF"/>
			<stop  offset="1" style="stop-color:#000000"/>
		</linearGradient>
		<path fill="url(#SVGID_49_)" d="M117.499,43.271l-0.726-1.033c0,0,6.924,26.05-32.553,30.985
			C97.532,72.305,121.746,67.026,117.499,43.271z"/>
		<linearGradient id="SVGID_50_" gradientUnits="userSpaceOnUse" x1="118.6089" y1="48.8555" x2="121.521" y2="48.8555">
			<stop  offset="0" style="stop-color:#FFFFFF"/>
			<stop  offset="1" style="stop-color:#000000"/>
		</linearGradient>
		<path opacity="0.4" fill="url(#SVGID_50_)" d="M118.609,43.156c0,0,2.984,4.666,1.378,11.398
			C122.06,49.025,122.42,45.988,118.609,43.156z"/>
		<linearGradient id="SVGID_51_" gradientUnits="userSpaceOnUse" x1="70.9976" y1="80.7529" x2="74.6692" y2="93.0685">
			<stop  offset="0" style="stop-color:#FFFFFF"/>
			<stop  offset="1" style="stop-color:#000000"/>
		</linearGradient>
		<path fill="url(#SVGID_51_)" d="M65.286,78.96c0,0,4.283,5.661,4.972,8.033c1.146,0.077,2.066-0.536,2.755-1.988
			c0.688-1.455,0.152-5.355,2.218-7.421C71.635,80.49,68.651,79.726,65.286,78.96z"/>
		<linearGradient id="SVGID_52_" gradientUnits="userSpaceOnUse" x1="98.4272" y1="24.5605" x2="96.5351" y2="37.0279">
			<stop  offset="0" style="stop-color:#FFFFFF"/>
			<stop  offset="1" style="stop-color:#000000"/>
		</linearGradient>
		<path opacity="0.4" fill="url(#SVGID_52_)" d="M128.363,50.655c1.251-1.285,2.101-2.757,2.469-4.398
			c1.968-8.783-10.574-19.072-28.016-22.98c-17.439-3.909-39.004-1.678-40.974,7.104c-1.968,8.78,16.405,20.788,33.847,24.698
			c8.297,1.859,16.202,1.938,22.428,0.566c1.214-3.566,1.458-7.821,0.3-12.909c0,0,3.52,4.581,1.455,12.47
			c0.197-0.055,0.396-0.111,0.589-0.17c1.828-3.664,3.154-8.032,1.715-11.286C125.056,45.099,127.021,47.602,128.363,50.655z"/>
		<linearGradient id="SVGID_53_" gradientUnits="userSpaceOnUse" x1="52.0483" y1="105.667" x2="81.4261" y2="117.8312">
			<stop  offset="0" style="stop-color:#FFFFFF"/>
			<stop  offset="1" style="stop-color:#000000"/>
		</linearGradient>
		<path opacity="0.5" fill="url(#SVGID_53_)" d="M51.897,87.911c0,0-1.378,8.262,4.438,14.383
			c11.221,6.962,3.188,20.044,3.188,20.044l-5.508,1.836c0,0,4.921-13.618,0.484-21.88C50.061,94.032,51.897,87.911,51.897,87.911z"
			/>
		<linearGradient id="SVGID_54_" gradientUnits="userSpaceOnUse" x1="107.2026" y1="54.4175" x2="78.1295" y2="88.3867">
			<stop  offset="0" style="stop-color:#FFFFFF"/>
			<stop  offset="1" style="stop-color:#000000"/>
		</linearGradient>
		<path opacity="0.5" fill="url(#SVGID_54_)" d="M113.407,43.539c0,0,1.069,23.869-24.636,27.389
			c6.427-3.366,22.799-10.712,22.033-27.849C111.877,45.375,112.334,44.915,113.407,43.539z"/>
		<linearGradient id="SVGID_55_" gradientUnits="userSpaceOnUse" x1="65.7651" y1="69.1431" x2="41.7446" y2="88.5738">
			<stop  offset="0" style="stop-color:#FFFFFF"/>
			<stop  offset="1" style="stop-color:#000000"/>
		</linearGradient>
		<path opacity="0.5" fill="url(#SVGID_55_)" d="M65.056,75.825c0,0-12.239-6.581-15.911,6.579
			C49.603,77.813,52.968,65.726,65.056,75.825z"/>
		<g opacity="0.4">
			<g>
				<image overflow="visible" width="76" height="76" xlink:href="21C807D8.png"  transform="matrix(1 0 0 1 44.437 34)">
				</image>
			</g>
			<circle fill-rule="evenodd" clip-rule="evenodd" fill="#FFFFFF" cx="82.269" cy="71.846" r="0.776"/>
		</g>
		<g>
			<g>
				<image overflow="visible" width="76" height="76" xlink:href="21C807DD.png"  transform="matrix(1 0 0 1 82.437 0)">
				</image>
			</g>
			<circle fill-rule="evenodd" clip-rule="evenodd" fill="#FFFFFF" cx="120.598" cy="37.877" r="0.776"/>
		</g>
		<linearGradient id="SVGID_56_" gradientUnits="userSpaceOnUse" x1="121.7378" y1="44.5293" x2="111.7839" y2="23.6644">
			<stop  offset="0" style="stop-color:#FFFFFF"/>
			<stop  offset="1" style="stop-color:#000000"/>
		</linearGradient>
		<path opacity="0.4" fill-rule="evenodd" clip-rule="evenodd" fill="url(#SVGID_56_)" d="M110.176,26.503
			c0,0,19.909,4.211,20.674,25.459c-3.827-9.764-13.398-21.632-23.162-19.525C111.326,28.417,112.09,29.373,110.176,26.503z"/>
		<linearGradient id="SVGID_57_" gradientUnits="userSpaceOnUse" x1="51.4058" y1="91.9893" x2="66.2473" y2="89.847">
			<stop  offset="0" style="stop-color:#FFFFFF"/>
			<stop  offset="1" style="stop-color:#000000"/>
		</linearGradient>
		<path opacity="0.5" fill="url(#SVGID_57_)" d="M60.624,103.773c0,0-12.926-15.221-5.837-24.813c1.702-2.302,3.46-2.976,5.15-2.688
			c0.055-0.021,0.104-0.045,0.159-0.066c0,0-7.574-1.951-11.131,5.393c-3.482,7.189,2.495,21.515,13.078,24.058
			C61.634,105.018,61.171,104.387,60.624,103.773z"/>
		
			<linearGradient id="SVGID_58_" gradientUnits="userSpaceOnUse" x1="102.1519" y1="56.5381" x2="41.103" y2="84.079" gradientTransform="matrix(0.9978 -0.0664 0.0664 0.9978 -2.8771 3.126)">
			<stop  offset="0" style="stop-color:#FFFFFF"/>
			<stop  offset="1" style="stop-color:#000000"/>
		</linearGradient>
		<path opacity="0.5" fill="url(#SVGID_58_)" d="M107.929,51.016c0,0-12.104,23.195-41.385,21.003
			c7.2,0.884,27.977-11.676,34.072-26.037C103.246,43.343,110.08,45.116,107.929,51.016z"/>
		
			<linearGradient id="SVGID_59_" gradientUnits="userSpaceOnUse" x1="88.9253" y1="58.2832" x2="27.7442" y2="85.8838" gradientTransform="matrix(0.9927 -0.1208 0.1208 0.9927 -4.1157 3.2728)">
			<stop  offset="0" style="stop-color:#FFFFFF"/>
			<stop  offset="1" style="stop-color:#000000"/>
		</linearGradient>
		<path opacity="0.2" fill="url(#SVGID_59_)" d="M94.982,46.496c0,0-10.82,23.82-40.178,23.23c7.238,0.49,30.33-9.163,35.634-23.833
			C92.92,43.113,96.807,40.487,94.982,46.496z"/>
		<linearGradient id="SVGID_60_" gradientUnits="userSpaceOnUse" x1="55.6792" y1="38.1074" x2="79.5097" y2="47.9747">
			<stop  offset="0" style="stop-color:#FFFFFF"/>
			<stop  offset="1" style="stop-color:#000000"/>
		</linearGradient>
		<path opacity="0.4" fill="url(#SVGID_60_)" d="M43.609,54.403c0,0,5.508-28.46,29.685-30.296
			C64.241,27.724,55.851,27.473,43.609,54.403z"/>
		<g>
			<g>
				<g enable-background="new    ">
					<defs>
						<polygon id="SVGID_61_" enable-background="new    " points="72.559,215.251 68.836,196.767 84.942,191.158 88.665,209.643 
													"/>
					</defs>
					<clipPath id="SVGID_62_">
						<use xlink:href="#SVGID_61_"  overflow="visible"/>
					</clipPath>
					<g clip-path="url(#SVGID_62_)">
						<g>
							<g>
								<g>
									<polyline fill="#D33932" points="78.989,193.231 74.79,194.693 76.166,201.525 70.212,203.599 71.183,208.419 
										77.136,206.346 78.512,213.178 82.711,211.716 81.335,204.884 87.289,202.811 86.318,197.99 80.365,200.063 
										78.989,193.231 									"/>
								</g>
							</g>
						</g>
					</g>
				</g>
			</g>
		</g>
	</g>
	<defs>
		<filter id="Adobe_OpacityMaskFilter_17_" filterUnits="userSpaceOnUse" x="41.068" y="13.118" width="89.97" height="131.491">
			<feColorMatrix  type="matrix" values="1 0 0 0 0  0 1 0 0 0  0 0 1 0 0  0 0 0 1 0"/>
		</filter>
	</defs>
	<mask maskUnits="userSpaceOnUse" x="41.068" y="13.118" width="89.97" height="131.491" id="SVGID_63_">
		<g filter="url(#Adobe_OpacityMaskFilter_17_)">
			<path fill="#FFFFFF" d="M112.047,23.655c0,0,12.672,7.02,16.882,11.79c4.216,4.773,12.969-7.946,12.969-7.946L127.512,6.502
				c0,0-25.603-4.064-26.176-4.114c-0.57-0.048-45.805,10-48.097,12.116c-2.289,2.114-35.655,86.181-35.734,87.135
				c-0.079,0.954,6.379,29.36,6.379,29.36s11.236,21.886,11.809,21.934c0.571,0.051,52.894,4.047,53.862,3.935
				c0.972-0.11,26.544-43.896,26.544-43.896l-20.416-8.629c0,0-23.446-29.829-7.283-41.542
				C104.562,51.086,112.047,23.655,112.047,23.655z"/>
		</g>
	</mask>
	<g mask="url(#SVGID_63_)">
		<defs>
			<filter id="Adobe_OpacityMaskFilter_18_" filterUnits="userSpaceOnUse" x="41.068" y="107.18" width="13.637" height="37.429">
				<feColorMatrix  type="matrix" values="1 0 0 0 0  0 1 0 0 0  0 0 1 0 0  0 0 0 1 0"/>
			</filter>
		</defs>
		<mask maskUnits="userSpaceOnUse" x="41.068" y="107.18" width="13.637" height="37.429" id="SVGID_63_">
			<g filter="url(#Adobe_OpacityMaskFilter_18_)">
				
					<linearGradient id="SVGID_64_" gradientUnits="userSpaceOnUse" x1="31.7261" y1="162.8379" x2="25.9815" y2="180.9648" gradientTransform="matrix(0.9981 -0.0619 0.0619 0.9981 5.9516 -37.4032)">
					<stop  offset="0" style="stop-color:#FFFFFF"/>
					<stop  offset="1" style="stop-color:#000000"/>
				</linearGradient>
				<polygon fill="url(#SVGID_64_)" points="64.603,147.218 32.619,149.197 29.767,103.199 61.75,101.217 				"/>
			</g>
		</mask>
		<g>
			<path fill="#323232" d="M48.784,125.048c1.168,4.926-2.23,14.531-7.716,18.301l0.87,1.26c5.563-3.821,9.767-13.871,8.336-19.916
				c-1.22-5.153,4.376-16.725,4.431-16.84l-1.376-0.672C53.089,107.675,47.435,119.362,48.784,125.048z"/>
		</g>
		<g>
			<path fill="#282828" d="M103.35,114.478c-0.266,1.138-1.979,1.71-3.828,1.276c-1.845-0.432-3.129-1.705-2.859-2.842
				c0.267-1.141,1.979-1.712,3.824-1.275C102.336,112.067,103.619,113.337,103.35,114.478z"/>
			
				<linearGradient id="SVGID_65_" gradientUnits="userSpaceOnUse" x1="16.9038" y1="207.2725" x2="18.3802" y2="202.2354" gradientTransform="matrix(0.9934 -0.115 0.115 0.9934 13.4939 -94.8598)">
				<stop  offset="0" style="stop-color:#6D6C6D"/>
				<stop  offset="1" style="stop-color:#000000"/>
			</linearGradient>
			<path fill="url(#SVGID_65_)" d="M54.004,103.631c0,0-1.736,4.267-1.63,5.172c0.382,0.745,1.263,0.706,1.627,0.469
				c0.567-0.198,2.775-4.912,2.775-4.912S56.132,103.321,54.004,103.631z"/>
			<path opacity="0.5" d="M52.861,106.693c0.803-0.12,1.704-0.069,2.592,0.365c0.627-1.219,1.185-2.427,1.185-2.427
				s-0.637-1.043-2.745-0.735C53.892,103.896,53.327,105.318,52.861,106.693z"/>
			
				<linearGradient id="SVGID_66_" gradientUnits="userSpaceOnUse" x1="62.436" y1="102.5464" x2="58.0807" y2="103.0186" gradientTransform="matrix(0.9736 0.2282 -0.2282 0.9736 85.7996 -73.9773)">
				<stop  offset="0" style="stop-color:#E6E6E6"/>
				<stop  offset="0.5333" style="stop-color:#A4A5A4"/>
				<stop  offset="1" style="stop-color:#676867"/>
			</linearGradient>
			<polygon fill="url(#SVGID_66_)" points="118.444,39.228 119.189,38.801 123.731,40.071 122.019,40.783 			"/>
			
				<linearGradient id="SVGID_67_" gradientUnits="userSpaceOnUse" x1="59.9233" y1="102.8057" x2="60.3781" y2="101.0375" gradientTransform="matrix(0.9736 0.2282 -0.2282 0.9736 85.7996 -73.9773)">
				<stop  offset="0" style="stop-color:#5A5A5A"/>
				<stop  offset="1" style="stop-color:#000000"/>
			</linearGradient>
			<polygon fill="url(#SVGID_67_)" points="118.739,38.113 118.706,39.154 122.413,40.125 123.395,39.987 123.534,38.805 			"/>
			<g>
				
					<image overflow="visible" opacity="0.5" width="30" height="48" xlink:href="21C807DE.png"  transform="matrix(1 0 0 1 101.0376 31.6001)">
				</image>
				<g>
					
						<linearGradient id="SVGID_68_" gradientUnits="userSpaceOnUse" x1="63.0269" y1="112.1069" x2="52.3115" y2="133.6247" gradientTransform="matrix(0.9736 0.2282 -0.2282 0.9736 85.7996 -73.9773)">
						<stop  offset="0" style="stop-color:#E6E6E6"/>
						<stop  offset="0.5333" style="stop-color:#A4A5A4"/>
						<stop  offset="1" style="stop-color:#676867"/>
					</linearGradient>
					<path fill="url(#SVGID_68_)" d="M123.731,40.064l-1.378,0.178c0,0-0.278-0.065-3.927-1.023c-0.13,2.991-0.547,6.129-1.298,9.33
						c-1.7,7.256-4.769,13.513-8.42,17.904c-0.223,0.434-0.349,0.676-0.349,0.676s5.371,5.339,6.27,4.945
						C121.901,59.578,124.644,42.931,123.731,40.064z"/>
				</g>
			</g>
			
				<linearGradient id="SVGID_69_" gradientUnits="userSpaceOnUse" x1="56.2075" y1="130.6572" x2="59.7722" y2="123.0093" gradientTransform="matrix(0.9736 0.2282 -0.2282 0.9736 85.7996 -73.9773)">
				<stop  offset="0" style="stop-color:#E6E6E6"/>
				<stop  offset="0.5333" style="stop-color:#A4A5A4"/>
				<stop  offset="1" style="stop-color:#676867"/>
			</linearGradient>
			<path fill="url(#SVGID_69_)" d="M113.016,71.291c0.746,0.552,1.357,0.899,1.606,0.789c7.276-12.495,10.019-29.143,9.108-32.008
				l-1.378,0.177C122.952,49.302,118.069,64.521,113.016,71.291z"/>
			<path opacity="0.2" d="M110.529,64.006c-0.626,0.925-1.278,1.792-1.945,2.596c-0.219,0.434-0.348,0.676-0.348,0.676
				s5.371,5.338,6.265,4.946c0.496-0.855,0.974-1.731,1.428-2.621C115.614,66.898,112.595,65.098,110.529,64.006z"/>
			<g>
				
					<image overflow="visible" opacity="0.5" width="47" height="55" xlink:href="E1E920DD.png"  transform="matrix(1 0 0 1 80.5874 53.1499)">
				</image>
				<g>
					
						<linearGradient id="SVGID_70_" gradientUnits="userSpaceOnUse" x1="62.104" y1="134.3232" x2="45.7587" y2="155.4874" gradientTransform="matrix(0.9736 0.2282 -0.2282 0.9736 85.7996 -73.9773)">
						<stop  offset="0" style="stop-color:#E6E6E6"/>
						<stop  offset="0.3059" style="stop-color:#A3A3A3"/>
						<stop  offset="1" style="stop-color:#000000"/>
					</linearGradient>
					<path fill="url(#SVGID_70_)" d="M116.451,80.575c-0.115,9.086-5.78,16.38-12.656,16.293
						c-6.879-0.086-12.362-7.523-12.247-16.608c0.114-9.082,5.783-16.377,12.661-16.291
						C111.084,64.056,116.567,71.49,116.451,80.575z"/>
				</g>
			</g>
			
				<linearGradient id="SVGID_71_" gradientUnits="userSpaceOnUse" x1="61.0308" y1="140.6611" x2="46.6166" y2="148.476" gradientTransform="matrix(0.9736 0.2282 -0.2282 0.9736 85.7996 -73.9773)">
				<stop  offset="0" style="stop-color:#E6E6E6"/>
				<stop  offset="0.3059" style="stop-color:#A3A3A3"/>
				<stop  offset="1" style="stop-color:#000000"/>
			</linearGradient>
			<path fill="url(#SVGID_71_)" d="M113.801,80.643c-0.126,10.044-6.391,18.106-13.99,18.01
				c-7.603-0.096-13.665-8.314-13.538-18.357c0.129-10.042,6.391-18.106,13.995-18.007C107.867,62.382,113.929,70.6,113.801,80.643z
				"/>
			<path opacity="0.3" fill="#FFFFFF" d="M107.763,65.114c0,0,1.933,0.675,4.045,2.989c1.943,2.129,4.748,6.43,4.153,11.976
				c-0.679-0.826-1.196-1.617-2.118-1.099C113.958,77.636,113.667,69.744,107.763,65.114z"/>
			<defs>
				<filter id="Adobe_OpacityMaskFilter_19_" filterUnits="userSpaceOnUse" x="85.79" y="61.704" width="28.753" height="37.592">
					<feColorMatrix  type="matrix" values="1 0 0 0 0  0 1 0 0 0  0 0 1 0 0  0 0 0 1 0"/>
				</filter>
			</defs>
			<mask maskUnits="userSpaceOnUse" x="85.79" y="61.704" width="28.753" height="37.592" id="SVGID_72_">
				<g filter="url(#Adobe_OpacityMaskFilter_19_)">
					
						<radialGradient id="SVGID_73_" cx="49.6831" cy="128.9043" r="4.7508" gradientTransform="matrix(0.972 -0.2348 0.2348 0.972 34.5443 -39.057)" gradientUnits="userSpaceOnUse">
						<stop  offset="0" style="stop-color:#FFFFFF"/>
						<stop  offset="1" style="stop-color:#000000"/>
					</radialGradient>
					<path fill="url(#SVGID_73_)" d="M116.331,73.792c0.759,3.134-0.072,6.026-1.854,6.458c-1.784,0.427-3.842-1.765-4.601-4.899
						c-0.756-3.134,0.077-6.024,1.859-6.455C113.514,68.466,115.575,70.658,116.331,73.792z"/>
					
						<radialGradient id="SVGID_74_" cx="54.396" cy="158.7949" r="4.7487" gradientTransform="matrix(0.8286 0.5598 -0.5598 0.8286 155.2521 -71.5727)" gradientUnits="userSpaceOnUse">
						<stop  offset="0" style="stop-color:#FFFFFF"/>
						<stop  offset="1" style="stop-color:#000000"/>
					</radialGradient>
					<path fill="url(#SVGID_74_)" d="M114.183,92.314c-1.802,2.672-4.499,4.004-6.018,2.978c-1.521-1.025-1.29-4.025,0.513-6.696
						c1.805-2.672,4.502-4.006,6.02-2.98C116.22,86.643,115.991,89.642,114.183,92.314z"/>
				</g>
			</mask>
			
				<ellipse transform="matrix(0.9999 0.0125 -0.0125 0.9999 1.0173 -1.2498)" mask="url(#SVGID_72_)" fill="none" stroke="#FFFFFF" stroke-width="1.2225" cx="100.166" cy="80.499" rx="13.764" ry="18.187"/>
			<path fill="none" stroke="#000000" stroke-width="1.2225" stroke-linecap="round" d="M99.017,62.637
				c7.331,0.09,13.179,8.018,13.058,17.708c-0.123,9.688-6.167,17.468-13.501,17.375"/>
			
				<linearGradient id="SVGID_75_" gradientUnits="userSpaceOnUse" x1="-0.0791" y1="145.8457" x2="13.9873" y2="159.3911" gradientTransform="matrix(0.9736 0.2282 -0.2282 0.9736 85.7996 -73.9773)">
				<stop  offset="0" style="stop-color:#6D6C6D"/>
				<stop  offset="1" style="stop-color:#000000"/>
			</linearGradient>
			<path fill="url(#SVGID_75_)" d="M77.242,80.4c4.751,9.744,2.889,20.427-4.16,23.862c-7.051,3.435-16.612-1.681-21.361-11.422
				c-4.75-9.744-2.885-20.426,4.164-23.862C62.933,65.543,72.497,70.655,77.242,80.4z"/>
			
				<linearGradient id="SVGID_76_" gradientUnits="userSpaceOnUse" x1="9.7788" y1="143.4941" x2="14.9883" y2="172.407" gradientTransform="matrix(0.9736 0.2282 -0.2282 0.9736 85.7996 -73.9773)">
				<stop  offset="0" style="stop-color:#E6E6E6"/>
				<stop  offset="0.3059" style="stop-color:#A3A3A3"/>
				<stop  offset="1" style="stop-color:#000000"/>
			</linearGradient>
			<path fill="url(#SVGID_76_)" d="M74.267,82.245c4.753,9.743,2.89,20.424-4.162,23.863c-7.052,3.433-16.613-1.68-21.359-11.421
				c-4.747-9.746-2.883-20.428,4.162-23.866C59.959,67.387,69.523,72.501,74.267,82.245z"/>
			
				<linearGradient id="SVGID_77_" gradientUnits="userSpaceOnUse" x1="6.8105" y1="147.0605" x2="15.5365" y2="181.8343" gradientTransform="matrix(0.9736 0.2282 -0.2282 0.9736 85.7996 -73.9773)">
				<stop  offset="0" style="stop-color:#E6E6E6"/>
				<stop  offset="0.3059" style="stop-color:#A3A3A3"/>
				<stop  offset="1" style="stop-color:#000000"/>
			</linearGradient>
			<path fill="url(#SVGID_77_)" d="M70.485,83.821c4.21,8.641,2.558,18.12-3.694,21.167c-6.254,3.049-14.737-1.489-18.951-10.133
				c-4.212-8.643-2.556-18.12,3.695-21.169C57.788,70.641,66.274,75.177,70.485,83.821z"/>
			<defs>
				<filter id="Adobe_OpacityMaskFilter_20_" filterUnits="userSpaceOnUse" x="51.345" y="72.079" width="22.16" height="33.41">
					<feColorMatrix  type="matrix" values="1 0 0 0 0  0 1 0 0 0  0 0 1 0 0  0 0 0 1 0"/>
				</filter>
			</defs>
			<mask maskUnits="userSpaceOnUse" x="51.345" y="72.079" width="22.16" height="33.41" id="SVGID_78_">
				<g filter="url(#Adobe_OpacityMaskFilter_20_)">
					
						<radialGradient id="SVGID_79_" cx="6.6831" cy="147.6953" r="4.0287" gradientTransform="matrix(0.9016 -0.4326 0.8214 1.7119 -58.8007 -169.5195)" gradientUnits="userSpaceOnUse">
						<stop  offset="0" style="stop-color:#FFFFFF"/>
						<stop  offset="1" style="stop-color:#000000"/>
					</radialGradient>
					<path fill="url(#SVGID_79_)" d="M71.624,78.948c2.068,4.309,2.367,8.468,0.661,9.283c-1.698,0.818-4.757-2.014-6.825-6.323
						c-2.066-4.31-2.362-8.467-0.66-9.284C66.5,71.808,69.557,74.64,71.624,78.948z"/>
					
						<radialGradient id="SVGID_80_" cx="3.7847" cy="179.4238" r="4.0296" gradientTransform="matrix(0.9016 -0.4326 0.4326 0.9016 -8.5755 -64.7979)" gradientUnits="userSpaceOnUse">
						<stop  offset="0" style="stop-color:#FFFFFF"/>
						<stop  offset="1" style="stop-color:#000000"/>
					</radialGradient>
					<path fill="url(#SVGID_80_)" d="M75.538,93.856c1.089,2.267,0.59,4.77-1.109,5.588c-1.701,0.815-3.965-0.363-5.056-2.631
						c-1.088-2.271-0.594-4.772,1.109-5.59C72.184,90.406,74.449,91.584,75.538,93.856z"/>
				</g>
			</mask>
			<path mask="url(#SVGID_78_)" fill="none" stroke="#FFFFFF" stroke-width="1.2225" d="M51.613,73.64
				c6.253-3.049,14.734,1.487,18.949,10.13c4.216,8.645,2.557,18.123-3.693,21.169"/>
			
				<radialGradient id="SVGID_81_" cx="6.7607" cy="158.6543" r="22.3522" gradientTransform="matrix(0.9736 0.2282 -0.2282 0.9736 85.7996 -73.9773)" gradientUnits="userSpaceOnUse">
				<stop  offset="0" style="stop-color:#E6E6E6"/>
				<stop  offset="0.4315" style="stop-color:#A3A3A3"/>
				<stop  offset="1" style="stop-color:#464646"/>
			</radialGradient>
			<path fill="url(#SVGID_81_)" d="M68.494,84.881c4.006,8.218,2.437,17.23-3.512,20.128c-5.945,2.896-14.013-1.414-18.018-9.636
				c-4.004-8.217-2.434-17.228,3.512-20.128C56.422,72.347,64.49,76.661,68.494,84.881z"/>
			<path opacity="0.2" fill="#FFFFFF" d="M60.669,68.561c2.707-0.701,11.123,2.386,16.027,12.095
				C74.249,78.922,71.428,71.174,60.669,68.561z"/>
			<path fill="none" stroke="#6D6C6D" stroke-width="1.2225" d="M66.977,86.113c3.354,6.868,2.036,14.403-2.938,16.822
				c-4.966,2.424-11.707-1.183-15.058-8.054c-3.343-6.868-2.03-14.397,2.939-16.821C56.89,75.641,63.629,79.244,66.977,86.113z"/>
			<path opacity="0.35" fill="#FFFFFF" d="M67.684,74.317c-0.066,1.579-0.866,2.201-2.182,2.163c0,0,3.654,3.533,4.699,5.918
				c0.743-2.311,2.442-1.432,3.146-1.136C73.347,81.263,70.744,76.373,67.684,74.317z"/>
			<defs>
				<filter id="Adobe_OpacityMaskFilter_21_" filterUnits="userSpaceOnUse" x="44.084" y="73.764" width="27.186" height="32.791">
					<feColorMatrix  type="matrix" values="1 0 0 0 0  0 1 0 0 0  0 0 1 0 0  0 0 0 1 0"/>
				</filter>
			</defs>
			<mask maskUnits="userSpaceOnUse" x="44.084" y="73.764" width="27.186" height="32.791" id="SVGID_82_">
				<g filter="url(#Adobe_OpacityMaskFilter_21_)">
					
						<radialGradient id="SVGID_83_" cx="19.0542" cy="155.4111" r="4.6374" gradientTransform="matrix(0.5522 -0.2935 0.7909 1.488 -66.5218 -143.2404)" gradientUnits="userSpaceOnUse">
						<stop  offset="0" style="stop-color:#FFFFFF"/>
						<stop  offset="1" style="stop-color:#000000"/>
					</radialGradient>
					<path fill="url(#SVGID_83_)" d="M69.455,81.071c2.043,3.842,2.563,7.562,1.161,8.307c-1.405,0.746-4.194-1.766-6.239-5.608
						c-2.043-3.844-2.561-7.563-1.162-8.307C64.618,74.715,67.411,77.227,69.455,81.071z"/>
				</g>
			</mask>
			<path mask="url(#SVGID_82_)" fill="none" stroke="#FFFFFF" stroke-width="1.2225" d="M68.443,84.912
				c4.004,8.217,2.434,17.231-3.512,20.128c-5.948,2.899-14.013-1.414-18.019-9.634c-4.005-8.219-2.436-17.23,3.513-20.129
				C56.37,72.38,64.437,76.692,68.443,84.912z"/>
			<path opacity="0.5" d="M63.274,68.124c-0.594,0.684-1.223,1.552-1.285,2.229c-0.927,0.82-1.787,2.145-2.002,3.069
				c-0.796,0.79-0.978,1.298-1.185,1.92c-0.207,0.621-3.014,6.614-0.914,12.235c2.104,5.616,4.497,1.905,4.497,1.905
				s-2.642-8.001,0.512-12.083c1.189-0.638,2.413-0.657,2.413-0.657s0.871-2.419,2.505-2.89c0.876-1.667,0.715-1.963,2.585-2.123
				C68.159,69.916,65.712,68.676,63.274,68.124z"/>
			<path opacity="0.2" fill="#FFFFFF" d="M75.959,87.669c-0.874,0.589-2.057,0.902-3.4,0.98c1.821,7.193-0.202,14.096-5.362,16.613
				c-1.863,0.907-3.926,1.137-6.009,0.792c2.939,0.885,5.91,0.793,8.532-0.487C75.34,102.829,77.661,95.477,75.959,87.669z"/>
			<defs>
				<filter id="Adobe_OpacityMaskFilter_22_" filterUnits="userSpaceOnUse" x="45.192" y="87.6" width="25.3" height="17.946">
					<feColorMatrix  type="matrix" values="1 0 0 0 0  0 1 0 0 0  0 0 1 0 0  0 0 0 1 0"/>
				</filter>
			</defs>
			<mask maskUnits="userSpaceOnUse" x="45.192" y="87.6" width="25.3" height="17.946" id="SVGID_84_">
				<g filter="url(#Adobe_OpacityMaskFilter_22_)">
					
						<linearGradient id="SVGID_85_" gradientUnits="userSpaceOnUse" x1="8.4678" y1="159.3408" x2="10.7683" y2="170.8006" gradientTransform="matrix(0.9736 0.2282 -0.2282 0.9736 85.7996 -73.9773)">
						<stop  offset="0" style="stop-color:#FFFFFF"/>
						<stop  offset="1" style="stop-color:#000000"/>
					</linearGradient>
					<polygon fill="url(#SVGID_85_)" points="71.248,112.851 38.029,105.068 43.157,83.173 76.377,90.959 					"/>
				</g>
			</mask>
			<path mask="url(#SVGID_84_)" fill="#282828" d="M55.342,89.442c-3.797-2.955-7.614-1.809-10.15-0.334
				c0.321,2.003,0.961,4.062,1.939,6.072c3.941,8.086,11.878,12.328,17.728,9.479c4.176-2.034,6.154-7.133,5.515-12.824
				C66.947,92.475,60.076,93.125,55.342,89.442z"/>
			
				<linearGradient id="SVGID_86_" gradientUnits="userSpaceOnUse" x1="3.6831" y1="166" x2="16.6553" y2="166" gradientTransform="matrix(0.9736 0.2282 -0.2282 0.9736 85.7996 -73.9773)">
				<stop  offset="0" style="stop-color:#6D6C6D"/>
				<stop  offset="1" style="stop-color:#000000"/>
			</linearGradient>
			<path fill="url(#SVGID_86_)" d="M62.814,87.526c1.858,3.811,1.125,7.993-1.632,9.334c-2.756,1.346-6.498-0.658-8.356-4.466
				c-1.856-3.813-1.129-7.992,1.631-9.333C57.212,81.716,60.955,83.716,62.814,87.526z"/>
			
				<linearGradient id="SVGID_87_" gradientUnits="userSpaceOnUse" x1="-0.0283" y1="123.6914" x2="6.562" y2="123.6914" gradientTransform="matrix(0.9736 0.2282 -0.2282 0.9736 85.7996 -73.9773)">
				<stop  offset="0" style="stop-color:#5A5A5A"/>
				<stop  offset="1" style="stop-color:#000000"/>
			</linearGradient>
			<path fill="url(#SVGID_87_)" d="M58.257,44.619c0,0-0.843,1.309-0.679,2.317c0.165,1.007,5.466,2.785,5.466,2.785l1.145-2.743
				L58.257,44.619z"/>
			
				<linearGradient id="SVGID_88_" gradientUnits="userSpaceOnUse" x1="49.8706" y1="96.9863" x2="50.7461" y2="84.2071" gradientTransform="matrix(0.9736 0.2282 -0.2282 0.9736 85.7996 -73.9773)">
				<stop  offset="0" style="stop-color:#E6E6E6"/>
				<stop  offset="0.3059" style="stop-color:#A3A3A3"/>
				<stop  offset="1" style="stop-color:#000000"/>
			</linearGradient>
			<path fill="url(#SVGID_88_)" d="M113.968,20.803c0.664,0.775,1.245,1.677,1.703,2.717c1.936,3.859,2.948,9.238,2.801,15.085
				l3.773,0.944c0,0,2.083-9.745-2.679-16.813c-4.764-7.07-11.579-6.528-14.886-6.698c0,0,1.526,0.164,3.487,0.89
				c0.049,0.01,0.097,0.016,0.145,0.027C110.529,17.474,112.427,18.825,113.968,20.803z"/>
			
				<linearGradient id="SVGID_89_" gradientUnits="userSpaceOnUse" x1="5.3154" y1="131.8633" x2="7.6629" y2="154.9033" gradientTransform="matrix(0.9736 0.2282 -0.2282 0.9736 85.7996 -73.9773)">
				<stop  offset="0" style="stop-color:#E6E6E6"/>
				<stop  offset="0.5333" style="stop-color:#A4A5A4"/>
				<stop  offset="1" style="stop-color:#676867"/>
			</linearGradient>
			<path fill="url(#SVGID_89_)" d="M61.555,90.471l1.849,0.299c-0.843-1.609-3.155-5.911-3.907-12.641
				c-0.873-6.233,0.876-21.536,4.59-29.269c-0.322-0.341-4.891-2.55-6.704-3.376c-1.366,1.424-9.202,29.191-2.993,39.607
				C58.021,89.285,61.555,90.471,61.555,90.471z"/>
			
				<linearGradient id="SVGID_90_" gradientUnits="userSpaceOnUse" x1="21.8032" y1="90.1626" x2="34.6316" y2="117.773" gradientTransform="matrix(0.9736 0.2282 -0.2282 0.9736 85.7996 -73.9773)">
				<stop  offset="0" style="stop-color:#E6E6E6"/>
				<stop  offset="0.3059" style="stop-color:#A3A3A3"/>
				<stop  offset="1" style="stop-color:#000000"/>
			</linearGradient>
			<path fill="url(#SVGID_90_)" d="M57.609,44.912l6.523,3.358c0,0,14.592-39.053,47.318-30.849
				c12.855,3.35,10.795,22.128,10.795,22.128l1.467-0.257c0.014-0.097,2.098-18.653-13.117-23.943
				C92.29,8.986,71.132,15.445,57.609,44.912z"/>
			<path fill="none" d="M113.968,20.803c0.633,0.806,1.196,1.716,1.703,2.717C115.213,22.479,114.632,21.578,113.968,20.803z"/>
			
				<linearGradient id="SVGID_91_" gradientUnits="userSpaceOnUse" x1="44.9741" y1="96.5337" x2="45.8423" y2="83.8606" gradientTransform="matrix(0.9736 0.2282 -0.2282 0.9736 85.7996 -73.9773)">
				<stop  offset="0" style="stop-color:#E6E6E6"/>
				<stop  offset="0.3059" style="stop-color:#A3A3A3"/>
				<stop  offset="1" style="stop-color:#000000"/>
			</linearGradient>
			<path fill="url(#SVGID_91_)" d="M108.313,16.956c-0.048-0.012-0.096-0.018-0.145-0.027c1.85,0.683,4.084,1.864,5.8,3.875
				C112.427,18.825,110.529,17.474,108.313,16.956z"/>
			
				<linearGradient id="SVGID_92_" gradientUnits="userSpaceOnUse" x1="45.5405" y1="99.9004" x2="13.6321" y2="103.9369" gradientTransform="matrix(0.9736 0.2282 -0.2282 0.9736 85.7996 -73.9773)">
				<stop  offset="0" style="stop-color:#E6E6E6"/>
				<stop  offset="0.3059" style="stop-color:#A3A3A3"/>
				<stop  offset="1" style="stop-color:#000000"/>
			</linearGradient>
			<path fill="url(#SVGID_92_)" d="M62.682,47.328l1.457,0.745c1.097-2.796,15.567-37.949,46.471-30.844
				c0.439-0.996,0.469-1.676-0.077-1.894C77.57,8.145,62.682,47.328,62.682,47.328z"/>
			
				<linearGradient id="SVGID_93_" gradientUnits="userSpaceOnUse" x1="9.9995" y1="148.7451" x2="11.038" y2="120.3816" gradientTransform="matrix(0.9736 0.2282 -0.2282 0.9736 85.7996 -73.9773)">
				<stop  offset="0" style="stop-color:#C1BFBB"/>
				<stop  offset="0.7431" style="stop-color:#7F7F7D"/>
				<stop  offset="1" style="stop-color:#676867"/>
			</linearGradient>
			<path fill="url(#SVGID_93_)" d="M61.711,90.212l1.578,0.465c-0.841-1.611-3.151-5.913-3.901-12.643
				c-0.879-6.232,0.872-21.535,4.585-29.269c-0.116-0.122-0.789-0.49-1.679-0.947C56.726,63.566,55.488,78.592,61.711,90.212z"/>
			<g>
				
					<linearGradient id="SVGID_94_" gradientUnits="userSpaceOnUse" x1="4.1597" y1="167.4648" x2="12.6973" y2="167.4648" gradientTransform="matrix(0.9736 0.2282 -0.2282 0.9736 85.7996 -73.9773)">
					<stop  offset="0" style="stop-color:#6D6C6D"/>
					<stop  offset="1" style="stop-color:#000000"/>
				</linearGradient>
				<path fill="url(#SVGID_94_)" d="M53.596,86.487c-1.834,0.895-2.342,3.641-1.135,6.123c0.693,1.421,1.859,2.533,3.113,2.963
					c0.854,0.296,1.688,0.266,2.406-0.085c0.72-0.35,1.257-0.989,1.551-1.844c0.046-0.131,0.085-0.267,0.116-0.406
					c0.279-1.183,0.09-2.597-0.531-3.87C57.91,86.884,55.432,85.594,53.596,86.487z M55.745,95.08
					c-1.127-0.39-2.181-1.397-2.815-2.699c-1.083-2.222-0.683-4.657,0.896-5.426c1.576-0.766,3.739,0.417,4.82,2.637l0,0
					c0.637,1.302,0.783,2.752,0.395,3.881c-0.251,0.722-0.693,1.257-1.287,1.543C57.161,95.308,56.462,95.327,55.745,95.08z
					 M59.117,89.367L59.117,89.367L59.117,89.367z"/>
			</g>
			<g>
				<g>
					
						<linearGradient id="SVGID_95_" gradientUnits="userSpaceOnUse" x1="17.3735" y1="176.3877" x2="17.2759" y2="175.1026" gradientTransform="matrix(0.9736 0.2282 -0.2282 0.9736 85.7996 -73.9773)">
						<stop  offset="0" style="stop-color:#FFFFFF"/>
						<stop  offset="1" style="stop-color:#000000"/>
					</linearGradient>
					<path fill="url(#SVGID_95_)" d="M62.313,100.505l-0.201,0.236c-0.05,0.147-0.036,0.328,0.047,0.491
						c0.142,0.295,0.436,0.437,0.665,0.325l0.204-0.236c0.008-0.016,0.011-0.033,0.014-0.051c0.032-0.137,0.011-0.294-0.06-0.44
						c-0.078-0.162-0.21-0.286-0.359-0.336L62.313,100.505z M62.388,101.118c-0.047-0.101-0.06-0.207-0.031-0.291l0.071-0.086
						l0.112-0.003c0.079,0.028,0.159,0.104,0.209,0.207l0,0c0.044,0.098,0.06,0.207,0.031,0.291l-0.068,0.086
						C62.628,101.363,62.475,101.29,62.388,101.118z M62.982,100.83L62.982,100.83L62.982,100.83z"/>
				</g>
				<ellipse transform="matrix(0.8994 -0.4371 0.4371 0.8994 -37.8652 37.5182)" cx="62.59" cy="101.036" rx="0.328" ry="0.454"/>
			</g>
			<g>
				<g>
					
						<linearGradient id="SVGID_96_" gradientUnits="userSpaceOnUse" x1="14.2896" y1="177.8213" x2="14.1917" y2="176.5327" gradientTransform="matrix(0.9736 0.2282 -0.2282 0.9736 85.7996 -73.9773)">
						<stop  offset="0" style="stop-color:#FFFFFF"/>
						<stop  offset="1" style="stop-color:#000000"/>
					</linearGradient>
					<path fill="url(#SVGID_96_)" d="M58.983,101.197l-0.197,0.237c-0.054,0.146-0.036,0.325,0.042,0.49
						c0.144,0.293,0.437,0.437,0.669,0.325l0.201-0.237c0.007-0.016,0.01-0.034,0.014-0.051c0.034-0.137,0.011-0.293-0.058-0.44
						c-0.078-0.163-0.209-0.286-0.359-0.337L58.983,101.197z M59.062,101.809c-0.049-0.101-0.06-0.208-0.029-0.292l0.065-0.087
						l0.111-0.002c0.085,0.029,0.162,0.108,0.211,0.207l0,0c0.05,0.102,0.06,0.209,0.034,0.292l-0.073,0.087
						C59.298,102.056,59.145,101.981,59.062,101.809z M59.654,101.52L59.654,101.52L59.654,101.52z"/>
				</g>
				<ellipse transform="matrix(0.8986 -0.4388 0.4388 0.8986 -38.6314 36.3265)" cx="59.263" cy="101.727" rx="0.328" ry="0.454"/>
			</g>
			<g>
				<g>
					
						<linearGradient id="SVGID_97_" gradientUnits="userSpaceOnUse" x1="10.645" y1="177.5186" x2="10.5471" y2="176.2288" gradientTransform="matrix(0.9736 0.2282 -0.2282 0.9736 85.7996 -73.9773)">
						<stop  offset="0" style="stop-color:#FFFFFF"/>
						<stop  offset="1" style="stop-color:#000000"/>
					</linearGradient>
					<path fill="url(#SVGID_97_)" d="M55.502,100.071l-0.2,0.236c-0.05,0.148-0.036,0.326,0.044,0.49
						c0.146,0.294,0.438,0.438,0.67,0.324l0.201-0.236c0.006-0.016,0.012-0.034,0.016-0.052c0.033-0.135,0.011-0.292-0.062-0.439
						c-0.079-0.163-0.21-0.287-0.354-0.339L55.502,100.071z M55.582,100.681c-0.05-0.1-0.062-0.209-0.035-0.291l0.071-0.085
						l0.11-0.002c0.083,0.028,0.162,0.105,0.21,0.204l0,0c0.048,0.101,0.063,0.208,0.03,0.292l-0.066,0.087
						C55.818,100.926,55.667,100.854,55.582,100.681z M56.171,100.394L56.171,100.394L56.171,100.394z"/>
				</g>
				<path d="M56.076,100.457c0.109,0.225,0.069,0.471-0.096,0.554c-0.162,0.077-0.384-0.041-0.494-0.265
					c-0.111-0.226-0.066-0.475,0.096-0.553C55.747,100.111,55.965,100.229,56.076,100.457z"/>
			</g>
			<g>
				<g>
					
						<linearGradient id="SVGID_98_" gradientUnits="userSpaceOnUse" x1="6.9976" y1="175.5195" x2="6.8999" y2="174.2332" gradientTransform="matrix(0.9736 0.2282 -0.2282 0.9736 85.7996 -73.9773)">
						<stop  offset="0" style="stop-color:#FFFFFF"/>
						<stop  offset="1" style="stop-color:#000000"/>
					</linearGradient>
					<path fill="url(#SVGID_98_)" d="M52.411,97.294l-0.202,0.232c-0.052,0.15-0.035,0.328,0.045,0.492
						c0.144,0.296,0.437,0.438,0.67,0.326l0.199-0.236c0.007-0.016,0.013-0.034,0.017-0.051c0.031-0.138,0.011-0.294-0.06-0.44
						c-0.08-0.163-0.213-0.284-0.361-0.338L52.411,97.294z M52.487,97.905c-0.049-0.1-0.06-0.209-0.034-0.292l0.071-0.087
						l0.113-0.001c0.079,0.028,0.157,0.105,0.207,0.206l0,0c0.049,0.101,0.06,0.211,0.035,0.292l-0.071,0.087
						C52.722,98.149,52.573,98.078,52.487,97.905z M53.08,97.617L53.08,97.617L53.08,97.617z"/>
				</g>
				<path d="M52.984,97.68c0.11,0.225,0.065,0.471-0.1,0.551c-0.162,0.077-0.385-0.039-0.493-0.264
					c-0.112-0.228-0.066-0.472,0.096-0.552C52.651,97.338,52.874,97.454,52.984,97.68z"/>
			</g>
			<g>
				<g>
					
						<linearGradient id="SVGID_99_" gradientUnits="userSpaceOnUse" x1="4.0024" y1="172.8262" x2="3.9048" y2="171.541" gradientTransform="matrix(0.9736 0.2282 -0.2282 0.9736 85.7996 -73.9773)">
						<stop  offset="0" style="stop-color:#FFFFFF"/>
						<stop  offset="1" style="stop-color:#000000"/>
					</linearGradient>
					<path fill="url(#SVGID_99_)" d="M50.107,93.991l-0.199,0.233c-0.054,0.149-0.039,0.328,0.044,0.491
						c0.145,0.295,0.438,0.437,0.667,0.325l0.199-0.235c0.006-0.018,0.014-0.033,0.02-0.052c0.03-0.137,0.008-0.295-0.06-0.439
						c-0.082-0.163-0.215-0.289-0.359-0.338L50.107,93.991z M50.185,94.601c-0.049-0.103-0.061-0.209-0.034-0.292l0.068-0.085h0.114
						c0.079,0.028,0.158,0.104,0.209,0.205l0,0c0.05,0.099,0.059,0.208,0.034,0.291l-0.07,0.087
						C50.42,94.846,50.269,94.773,50.185,94.601z M50.778,94.314L50.778,94.314L50.778,94.314z"/>
				</g>
				<path d="M50.678,94.375c0.11,0.226,0.067,0.473-0.094,0.553c-0.164,0.08-0.386-0.039-0.499-0.264
					c-0.108-0.229-0.066-0.473,0.1-0.553C50.349,94.031,50.569,94.151,50.678,94.375z"/>
			</g>
			<g>
				<g>
					
						<linearGradient id="SVGID_100_" gradientUnits="userSpaceOnUse" x1="2.0474" y1="169.7461" x2="1.9498" y2="168.461" gradientTransform="matrix(0.9736 0.2282 -0.2282 0.9736 85.7996 -73.9773)">
						<stop  offset="0" style="stop-color:#FFFFFF"/>
						<stop  offset="1" style="stop-color:#000000"/>
					</linearGradient>
					<path fill="url(#SVGID_100_)" d="M48.908,90.544l-0.201,0.235c-0.052,0.146-0.034,0.326,0.045,0.489
						c0.146,0.296,0.436,0.438,0.67,0.326l0.201-0.237c0.006-0.017,0.009-0.033,0.014-0.05c0.031-0.138,0.011-0.296-0.059-0.439
						c-0.08-0.167-0.21-0.287-0.363-0.338L48.908,90.544z M48.985,91.154c-0.049-0.1-0.06-0.208-0.034-0.292l0.071-0.084
						l0.111-0.004c0.081,0.03,0.159,0.106,0.211,0.207l0,0c0.048,0.1,0.059,0.208,0.029,0.292l-0.067,0.085
						C49.223,91.4,49.068,91.328,48.985,91.154z M49.578,90.868L49.578,90.868L49.578,90.868z"/>
				</g>
				<path d="M49.482,90.928c0.106,0.227,0.064,0.475-0.1,0.553c-0.161,0.081-0.382-0.04-0.492-0.264
					c-0.109-0.226-0.066-0.473,0.095-0.553C49.151,90.584,49.37,90.701,49.482,90.928z"/>
			</g>
			<g>
				<g>
					
						<linearGradient id="SVGID_101_" gradientUnits="userSpaceOnUse" x1="2.6113" y1="159.3711" x2="2.5136" y2="158.0848" gradientTransform="matrix(0.9736 0.2282 -0.2282 0.9736 85.7996 -73.9773)">
						<stop  offset="0" style="stop-color:#FFFFFF"/>
						<stop  offset="1" style="stop-color:#000000"/>
					</linearGradient>
					<path fill="url(#SVGID_101_)" d="M51.824,80.571l-0.201,0.234c-0.05,0.148-0.035,0.328,0.045,0.492
						c0.143,0.293,0.438,0.437,0.67,0.326l0.199-0.239c0.007-0.016,0.012-0.032,0.017-0.05c0.03-0.137,0.01-0.294-0.06-0.44
						c-0.081-0.165-0.211-0.286-0.359-0.337L51.824,80.571z M51.904,81.184c-0.05-0.102-0.063-0.211-0.035-0.292l0.071-0.086
						c0-0.001,0.11-0.003,0.11-0.003c0.081,0.03,0.16,0.107,0.211,0.207l0,0c0.049,0.098,0.061,0.207,0.03,0.291l-0.068,0.087
						C52.139,81.426,51.986,81.353,51.904,81.184z M52.494,80.894L52.494,80.894L52.494,80.894z"/>
				</g>
				<path d="M52.397,80.957c0.109,0.224,0.064,0.474-0.096,0.552c-0.164,0.08-0.385-0.04-0.497-0.266
					c-0.107-0.224-0.066-0.472,0.1-0.55C52.067,80.611,52.287,80.729,52.397,80.957z"/>
			</g>
			<g>
				<g>
					
						<linearGradient id="SVGID_102_" gradientUnits="userSpaceOnUse" x1="12.77" y1="159.3711" x2="12.6722" y2="158.0836" gradientTransform="matrix(0.9736 0.2282 -0.2282 0.9736 85.7996 -73.9773)">
						<stop  offset="0" style="stop-color:#FFFFFF"/>
						<stop  offset="1" style="stop-color:#000000"/>
					</linearGradient>
					<path fill="url(#SVGID_102_)" d="M61.714,82.888l-0.202,0.235c-0.051,0.147-0.032,0.326,0.047,0.491
						c0.143,0.292,0.438,0.437,0.67,0.323l0.199-0.235c0.008-0.018,0.011-0.034,0.015-0.049c0.032-0.14,0.012-0.298-0.058-0.441
						c-0.081-0.165-0.215-0.286-0.361-0.338L61.714,82.888z M61.792,83.499c-0.051-0.1-0.062-0.209-0.032-0.291l0.068-0.087h0.109
						c0.084,0.029,0.161,0.104,0.21,0.206l0,0c0.052,0.099,0.063,0.209,0.035,0.291l-0.07,0.087
						C62.028,83.746,61.876,83.672,61.792,83.499z M62.385,83.212L62.385,83.212L62.385,83.212z"/>
				</g>
				<ellipse transform="matrix(0.9006 -0.4347 0.4347 0.9006 -30.0967 35.2379)" cx="61.991" cy="83.418" rx="0.328" ry="0.452"/>
			</g>
			<g>
				<g>
					
						<linearGradient id="SVGID_103_" gradientUnits="userSpaceOnUse" x1="15.8086" y1="161.7158" x2="15.7108" y2="160.4284" gradientTransform="matrix(0.9736 0.2282 -0.2282 0.9736 85.7996 -73.9773)">
						<stop  offset="0" style="stop-color:#FFFFFF"/>
						<stop  offset="1" style="stop-color:#000000"/>
					</linearGradient>
					<path fill="url(#SVGID_103_)" d="M64.139,85.864L63.934,86.1c-0.048,0.148-0.03,0.328,0.049,0.492
						c0.144,0.292,0.438,0.437,0.668,0.324l0.204-0.238c0.004-0.016,0.009-0.032,0.013-0.048c0.031-0.138,0.01-0.297-0.061-0.441
						c-0.08-0.165-0.209-0.287-0.356-0.338L64.139,85.864z M64.217,86.476c-0.05-0.101-0.062-0.209-0.033-0.291l0.067-0.085
						c0-0.001,0.111-0.002,0.111-0.002c0.086,0.029,0.163,0.104,0.212,0.205l0,0c0.051,0.1,0.062,0.209,0.032,0.291l-0.07,0.087
						C64.452,86.722,64.3,86.648,64.217,86.476z M64.807,86.188L64.807,86.188L64.807,86.188z"/>
				</g>
				<ellipse transform="matrix(0.8991 -0.4377 0.4377 0.8991 -31.3144 36.9068)" cx="64.417" cy="86.395" rx="0.328" ry="0.454"/>
			</g>
			<g>
				<g>
					
						<linearGradient id="SVGID_104_" gradientUnits="userSpaceOnUse" x1="18.0889" y1="164.6445" x2="17.9913" y2="163.3594" gradientTransform="matrix(0.9736 0.2282 -0.2282 0.9736 85.7996 -73.9773)">
						<stop  offset="0" style="stop-color:#FFFFFF"/>
						<stop  offset="1" style="stop-color:#000000"/>
					</linearGradient>
					<path fill="url(#SVGID_104_)" d="M65.688,89.237l-0.2,0.236c-0.051,0.147-0.033,0.326,0.046,0.488
						c0.145,0.297,0.437,0.436,0.666,0.326l0.204-0.236c0.007-0.019,0.009-0.033,0.014-0.053c0.033-0.134,0.012-0.292-0.06-0.439
						c-0.081-0.164-0.212-0.283-0.359-0.336L65.688,89.237z M65.768,89.85c-0.051-0.101-0.061-0.209-0.034-0.292l0.071-0.085
						l0.109-0.002c0.083,0.027,0.16,0.104,0.209,0.206l0,0c0.052,0.099,0.062,0.209,0.033,0.291l-0.069,0.087
						C66.005,90.094,65.849,90.02,65.768,89.85z M66.358,89.56L66.358,89.56L66.358,89.56z"/>
				</g>
				<path d="M66.262,89.624c0.111,0.226,0.067,0.472-0.097,0.55c-0.164,0.08-0.385-0.037-0.494-0.262
					c-0.109-0.226-0.065-0.473,0.097-0.552C65.928,89.279,66.155,89.398,66.262,89.624z"/>
			</g>
			<path fill="none" stroke="#6D6C6D" stroke-width="0.6113" stroke-linecap="round" d="M62.309,36.355
				c1.733,0.466,3.317,1.143,4.936,1.943l0.983,1.434"/>
			<path fill="none" stroke="#E6E6E6" stroke-width="0.6113" stroke-linecap="round" d="M62.357,36.149
				c1.733,0.467,3.315,1.143,4.937,1.943l0.983,1.434"/>
			<defs>
				<filter id="Adobe_OpacityMaskFilter_23_" filterUnits="userSpaceOnUse" x="61.113" y="38.782" width="3.698" height="1.743">
					<feColorMatrix  type="matrix" values="1 0 0 0 0  0 1 0 0 0  0 0 1 0 0  0 0 0 1 0"/>
				</filter>
			</defs>
			<mask maskUnits="userSpaceOnUse" x="61.113" y="38.782" width="3.698" height="1.743" id="SVGID_105_">
				<g filter="url(#Adobe_OpacityMaskFilter_23_)">
					
						<radialGradient id="SVGID_106_" cx="8.4536" cy="182.7842" r="1.8154" gradientTransform="matrix(1.0033 0.4201 -0.159 0.3366 83.5194 -25.4332)" gradientUnits="userSpaceOnUse">
						<stop  offset="0" style="stop-color:#FFFFFF"/>
						<stop  offset="1" style="stop-color:#000000"/>
					</radialGradient>
					<polygon fill="url(#SVGID_106_)" points="65.082,40.99 60.442,39.045 60.798,38.298 65.431,40.239 					"/>
				</g>
			</mask>
			<g mask="url(#SVGID_105_)">
				<g>
					<path fill="#282828" d="M61.125,39.059c-0.04,0.077,0.019,0.172,0.135,0.216l3.169,1.227c0.114,0.047,0.241,0.021,0.281-0.052
						c0.04-0.075-0.019-0.174-0.136-0.217l-3.169-1.229C61.292,38.96,61.165,38.984,61.125,39.059z"/>
				</g>
				<g>
					<path fill="#C1BFBB" d="M61.214,38.859c-0.04,0.075,0.023,0.17,0.136,0.217l3.167,1.225c0.117,0.045,0.238,0.022,0.282-0.053
						c0.038-0.075-0.023-0.172-0.136-0.217l-3.168-1.226C61.382,38.759,61.255,38.785,61.214,38.859z"/>
				</g>
			</g>
			<defs>
				<filter id="Adobe_OpacityMaskFilter_24_" filterUnits="userSpaceOnUse" x="60.496" y="40.048" width="3.698" height="1.743">
					<feColorMatrix  type="matrix" values="1 0 0 0 0  0 1 0 0 0  0 0 1 0 0  0 0 0 1 0"/>
				</filter>
			</defs>
			<mask maskUnits="userSpaceOnUse" x="60.496" y="40.048" width="3.698" height="1.743" id="SVGID_107_">
				<g filter="url(#Adobe_OpacityMaskFilter_24_)">
					
						<radialGradient id="SVGID_108_" cx="8.437" cy="186.5664" r="1.8151" gradientTransform="matrix(1.0033 0.4201 -0.159 0.3366 83.5194 -25.4332)" gradientUnits="userSpaceOnUse">
						<stop  offset="0" style="stop-color:#FFFFFF"/>
						<stop  offset="1" style="stop-color:#000000"/>
					</radialGradient>
					<polygon fill="url(#SVGID_108_)" points="64.461,42.253 59.825,40.314 60.178,39.563 64.816,41.507 					"/>
				</g>
			</mask>
			<g mask="url(#SVGID_107_)">
				<g>
					<path fill="#282828" d="M60.508,40.326c-0.04,0.074,0.02,0.171,0.133,0.217l3.169,1.227c0.116,0.043,0.241,0.019,0.283-0.057
						c0.036-0.072-0.024-0.171-0.139-0.216l-3.166-1.225C60.673,40.227,60.549,40.251,60.508,40.326z"/>
				</g>
				<g>
					<path fill="#C1BFBB" d="M60.596,40.125c-0.039,0.074,0.021,0.169,0.136,0.216l3.17,1.227c0.116,0.043,0.239,0.021,0.281-0.055
						c0.036-0.074-0.024-0.171-0.139-0.216l-3.164-1.227C60.764,40.025,60.636,40.05,60.596,40.125z"/>
				</g>
			</g>
			<defs>
				<filter id="Adobe_OpacityMaskFilter_25_" filterUnits="userSpaceOnUse" x="59.792" y="41.506" width="3.699" height="1.744">
					<feColorMatrix  type="matrix" values="1 0 0 0 0  0 1 0 0 0  0 0 1 0 0  0 0 0 1 0"/>
				</filter>
			</defs>
			<mask maskUnits="userSpaceOnUse" x="59.792" y="41.506" width="3.699" height="1.744" id="SVGID_109_">
				<g filter="url(#Adobe_OpacityMaskFilter_25_)">
					
						<radialGradient id="SVGID_110_" cx="8.4272" cy="190.9121" r="1.813" gradientTransform="matrix(1.0033 0.4201 -0.159 0.3366 83.5194 -25.4332)" gradientUnits="userSpaceOnUse">
						<stop  offset="0" style="stop-color:#FFFFFF"/>
						<stop  offset="1" style="stop-color:#000000"/>
					</radialGradient>
					<polygon fill="url(#SVGID_110_)" points="63.761,43.713 59.126,41.772 59.477,41.024 64.113,42.964 					"/>
				</g>
			</mask>
			<g mask="url(#SVGID_109_)">
				<g>
					<path fill="#282828" d="M59.803,41.784c-0.037,0.075,0.021,0.172,0.138,0.215l3.169,1.228c0.111,0.045,0.238,0.021,0.28-0.055
						c0.037-0.076-0.021-0.171-0.138-0.216l-3.164-1.228C59.969,41.685,59.844,41.709,59.803,41.784z"/>
				</g>
				<g>
					<path fill="#C1BFBB" d="M59.895,41.582c-0.04,0.077,0.02,0.173,0.137,0.219l3.165,1.225c0.114,0.045,0.241,0.019,0.283-0.055
						c0.039-0.074-0.021-0.17-0.138-0.216l-3.167-1.225C60.06,41.483,59.935,41.508,59.895,41.582z"/>
				</g>
			</g>
			<path opacity="0.35" fill="#FFFFFF" d="M52.212,72.799c-0.085,4.651,0.479,8.941,2.191,11.814
				c3.386,3.907,6.679,5.012,6.679,5.012l1.722,0.279c-0.783-1.501-2.941-5.507-3.637-11.778c-0.27-1.907-0.271-4.727-0.034-7.909
				c-0.345,0.709-0.887,0.974-1.598,0.913C55.564,72.849,53.861,72.977,52.212,72.799z"/>
			<line opacity="0.5" x1="68.659" y1="100.515" x2="45.383" y2="84.372"/>
			<path opacity="0.5" d="M47.337,85.501c0,0,6.538,11.75,19.717,14.836C63.94,101.301,48.522,99.924,47.337,85.501z"/>
			<g>
				
					<linearGradient id="SVGID_111_" gradientUnits="userSpaceOnUse" x1="8.3711" y1="162.4063" x2="14.7545" y2="171.6087" gradientTransform="matrix(0.9736 0.2282 -0.2282 0.9736 85.7996 -73.9773)">
					<stop  offset="0" style="stop-color:#6D6C6D"/>
					<stop  offset="1" style="stop-color:#AEACA7"/>
				</linearGradient>
				<path fill="url(#SVGID_111_)" d="M47.751,78.091c-1.102,1.544-1.87,3.45-2.141,5.592c1.665,3.059,7.74,12.145,22.981,16.697
					c1.131-1.854,1.6-4.168,1.654-6.695c-0.124-0.251-0.175-0.421-0.357-0.814c-13.561-4.033-18.911-10.864-21.331-14.674
					C48.223,78.109,47.941,78.109,47.751,78.091z"/>
				
					<linearGradient id="SVGID_112_" gradientUnits="userSpaceOnUse" x1="9.7759" y1="157.6357" x2="10.5573" y2="179.1888" gradientTransform="matrix(0.9736 0.2282 -0.2282 0.9736 85.7996 -73.9773)">
					<stop  offset="0" style="stop-color:#E6E6E6"/>
					<stop  offset="0.3059" style="stop-color:#A3A3A3"/>
					<stop  offset="1" style="stop-color:#000000"/>
				</linearGradient>
				<path fill="url(#SVGID_112_)" d="M45.272,84.255c1.679,3.08,7.801,12.237,23.152,16.821c1.235-2.027,1.86-4.609,1.814-7.415
					c-13.665-4.06-20.036-11.738-22.477-15.579C46.421,79.713,45.576,81.854,45.272,84.255z"/>
				<path opacity="0.2" fill="#FFFFFF" d="M69.744,97.479c-5.25,0.1-17.282-6.842-18.418-10.542c-0.729-2.377-3.04-4.572-4.939-6.05
					c-0.398,1.006-0.674,2.099-0.819,3.258c1.651,3.037,7.692,12.067,22.834,16.593C68.995,99.765,69.442,98.668,69.744,97.479z"/>
			</g>
			<g>
				
					<linearGradient id="SVGID_113_" gradientUnits="userSpaceOnUse" x1="9.6113" y1="164.7158" x2="7.9817" y2="159.6636" gradientTransform="matrix(0.9736 0.2282 -0.2282 0.9736 85.7996 -73.9773)">
					<stop  offset="0" style="stop-color:#FFFFFF"/>
					<stop  offset="1" style="stop-color:#000000"/>
				</linearGradient>
				<path fill="url(#SVGID_113_)" d="M54.06,84.664c-0.072-0.821,4.277-2.511,6.729,4.512C61.316,90.727,54.06,84.664,54.06,84.664z
					"/>
				
					<linearGradient id="SVGID_114_" gradientUnits="userSpaceOnUse" x1="8.6147" y1="162.3389" x2="9.2227" y2="171.1952" gradientTransform="matrix(0.9736 0.2282 -0.2282 0.9736 85.7996 -73.9773)">
					<stop  offset="0" style="stop-color:#6D6C6D"/>
					<stop  offset="1" style="stop-color:#000000"/>
				</linearGradient>
				<path fill="url(#SVGID_114_)" d="M60.612,88.778c1.581,3.248,0.961,6.81-1.391,7.954c-2.35,1.148-5.536-0.559-7.118-3.805
					c-1.584-3.25-0.961-6.811,1.385-7.956C55.839,83.825,59.028,85.53,60.612,88.778z"/>
				
					<linearGradient id="SVGID_115_" gradientUnits="userSpaceOnUse" x1="5.5825" y1="170.1641" x2="15.025" y2="161.0472" gradientTransform="matrix(0.9736 0.2282 -0.2282 0.9736 85.7996 -73.9773)">
					<stop  offset="0" style="stop-color:#E6E6E6"/>
					<stop  offset="0.3059" style="stop-color:#A3A3A3"/>
					<stop  offset="1" style="stop-color:#000000"/>
				</linearGradient>
				<path fill="url(#SVGID_115_)" d="M60.105,88.84c1.583,3.247,0.961,6.81-1.388,7.954c-2.351,1.145-5.536-0.558-7.121-3.807
					c-1.583-3.25-0.959-6.81,1.388-7.956C55.334,83.886,58.523,85.59,60.105,88.84z"/>
				
					<linearGradient id="SVGID_116_" gradientUnits="userSpaceOnUse" x1="6.459" y1="168.4238" x2="11.4082" y2="165.9492" gradientTransform="matrix(0.9736 0.2282 -0.2282 0.9736 85.7996 -73.9773)">
					<stop  offset="0" style="stop-color:#E6E6E6"/>
					<stop  offset="0.3059" style="stop-color:#A3A3A3"/>
					<stop  offset="1" style="stop-color:#000000"/>
				</linearGradient>
				<path fill="url(#SVGID_116_)" d="M58.936,89.446c1.147,2.355,0.693,4.942-1.016,5.774c-1.71,0.832-4.025-0.403-5.171-2.758
					c-1.148-2.356-0.696-4.94,1.013-5.772C55.472,85.856,57.786,87.09,58.936,89.446z"/>
				<g>
					<g>
						
							<linearGradient id="SVGID_117_" gradientUnits="userSpaceOnUse" x1="8.8765" y1="170.6084" x2="7.8341" y2="165.657" gradientTransform="matrix(0.9736 0.2282 -0.2282 0.9736 85.7996 -73.9773)">
							<stop  offset="0" style="stop-color:#FFFFFF"/>
							<stop  offset="1" style="stop-color:#000000"/>
						</linearGradient>
						<path fill="url(#SVGID_117_)" d="M54.815,89.522c-0.674,0.327-0.862,1.271-0.434,2.153c0.421,0.865,1.301,1.306,1.962,0.982
							c0.271-0.13,0.471-0.365,0.575-0.677c0.02-0.048,0.03-0.098,0.043-0.148c0.096-0.413,0.031-0.888-0.182-1.326
							c-0.243-0.498-0.635-0.869-1.077-1.021C55.389,89.377,55.084,89.391,54.815,89.522z M54.849,91.447
							c-0.29-0.598-0.205-1.266,0.194-1.458c0.177-0.086,0.367-0.055,0.488-0.011c0.31,0.106,0.601,0.388,0.781,0.755l0,0
							c0.18,0.366,0.22,0.768,0.113,1.077c-0.045,0.126-0.133,0.292-0.31,0.38C55.719,92.383,55.135,92.044,54.849,91.447z
							 M56.78,90.507L56.78,90.507L56.78,90.507z"/>
					</g>
					<path d="M56.556,90.664c-0.359-0.735-1.082-1.121-1.614-0.861c-0.534,0.261-0.677,1.067-0.316,1.806
						c0.36,0.734,1.083,1.123,1.616,0.862C56.775,92.211,56.916,91.406,56.556,90.664z"/>
				</g>
			</g>
			<path opacity="0.5" d="M77.798,99.765c-7.161-2.255-13.337-5.35-17.641-7.82c-0.164-1.027-0.722-2.115-1.635-3.022
				c-1.814-1.802-4.345-2.198-5.649-0.884c-1.303,1.314-0.888,3.839,0.929,5.641c0.831,0.823,1.808,1.35,2.75,1.557
				c0.438,0.297,0.806,0.479,0.983,0.51c5.825,3.369,11.65,5.758,17.081,7.456C75.9,102.309,76.964,101.141,77.798,99.765z"/>
			<g>
				
					<linearGradient id="SVGID_118_" gradientUnits="userSpaceOnUse" x1="37.6704" y1="165.3574" x2="31.1066" y2="181.4466" gradientTransform="matrix(0.9919 0.1269 -0.1269 0.9919 66.4851 -74.9876)">
					<stop  offset="0" style="stop-color:#E6E6E6"/>
					<stop  offset="0.3059" style="stop-color:#A3A3A3"/>
					<stop  offset="1" style="stop-color:#000000"/>
				</linearGradient>
				<path fill="url(#SVGID_118_)" d="M103.201,117.217c0.884-2.053,0.368-3.381-1.629-4.427c-1.521-0.796-3.69-0.821-4.797-0.006
					c-16.356-2.141-30.189-13.022-37.382-19.78c0.077-1.036-0.214-2.225-0.896-3.318c-1.348-2.173-3.718-3.14-5.291-2.163
					c-1.572,0.977-1.75,3.532-0.397,5.703c0.615,0.993,1.445,1.73,2.314,2.15c0.359,0.39,0.673,0.652,0.841,0.724
					c17.847,16.872,38.74,21.11,40.69,21.477C98.263,118.358,101.639,119.416,103.201,117.217z"/>
				
					<radialGradient id="SVGID_119_" cx="72.9595" cy="177.0283" r="10.7479" gradientTransform="matrix(0.9855 -0.1252 0.1589 0.9189 2.1135 -36.7643)" gradientUnits="userSpaceOnUse">
					<stop  offset="0" style="stop-color:#E6E6E6"/>
					<stop  offset="0.3059" style="stop-color:#A3A3A3"/>
					<stop  offset="1" style="stop-color:#000000"/>
				</radialGradient>
				<path fill="url(#SVGID_119_)" d="M102.592,116.278c-0.17,1.052-1.672,1.682-3.354,1.411c-1.68-0.276-2.903-1.348-2.734-2.401
					c0.171-1.049,1.674-1.68,3.351-1.406C101.539,114.152,102.763,115.227,102.592,116.278z"/>
				<path fill="#AEACA7" d="M57.508,89.952c0.695,1.105,0.988,2.296,0.903,3.333c7.366,6.854,21.551,17.924,38.375,20.281
					c1.14-0.8,3.478-0.901,5.037-0.087c0.804,0.423,1.13,0.884,1.55,1.548c-0.004-0.664-0.824-1.684-2.159-2.243
					c-1.589-0.67-3.455-0.504-4.563,0.309c-16.392-2.145-30.265-13.028-37.482-19.788c0.081-1.037-0.214-2.227-0.895-3.32
					c-1.029-1.649-2.646-2.603-4.056-2.538C55.421,87.719,56.663,88.609,57.508,89.952z"/>
				<path opacity="0.2" fill="#FFFFFF" d="M103.074,117.006c0.094-0.224,0.164-0.438,0.217-0.642
					c-13.3-0.446-33.732-8.785-41.42-18.804c-4.235-5.519-7.485-7.534-9.603-8.215c-0.253,1.146,0,2.568,0.804,3.856
					c0.613,0.986,1.438,1.718,2.298,2.131c0.355,0.388,0.667,0.647,0.833,0.719c17.709,16.74,38.439,20.947,40.376,21.309
					C98.174,118.139,101.527,119.185,103.074,117.006z"/>
				
					<linearGradient id="SVGID_120_" gradientUnits="userSpaceOnUse" x1="11.5015" y1="171.7178" x2="8.3921" y2="162.3196" gradientTransform="matrix(0.9919 0.1269 -0.1269 0.9919 66.4851 -74.9876)">
					<stop  offset="0" style="stop-color:#FFFFFF"/>
					<stop  offset="1" style="stop-color:#000000"/>
				</linearGradient>
				<path fill="url(#SVGID_120_)" d="M56.45,94.377c-1.035,0.506-2.478-0.32-3.227-1.85c-0.752-1.528-0.521-3.178,0.512-3.684
					c1.034-0.508,2.478,0.321,3.229,1.849C57.713,92.223,57.482,93.871,56.45,94.377z"/>
				<g opacity="0.8">
					<g>
						<g enable-background="new    ">
							<defs>
								<polygon id="SVGID_121_" enable-background="new    " points="53.561,92.205 53.907,89.829 56.105,90.659 55.759,93.035 
																	"/>
							</defs>
							<clipPath id="SVGID_122_">
								<use xlink:href="#SVGID_121_"  overflow="visible"/>
							</clipPath>
							<g clip-path="url(#SVGID_122_)">
								<g>
									<g>
										<g>
											<path fill="#FFFFFF" d="M54.208,89.942c-0.043,0.156-0.096,0.327-0.168,0.536l-0.389,1.106l0.389,0.274l0.331-0.947
												l0.058-0.114c0.043-0.054,0.122-0.107,0.206-0.075c0.014,0.005,0.028,0.013,0.043,0.024
												c0.125,0.092,0.133,0.277,0.063,0.478l-0.32,0.915l0.388,0.273l0.333-0.955l0.059-0.114
												c0.048-0.064,0.117-0.102,0.191-0.073c0.016,0.006,0.032,0.015,0.049,0.028c0.131,0.095,0.14,0.271,0.057,0.512
												l-0.301,0.885l0.382,0.271l0.333-0.963c0.167-0.482,0.061-0.841-0.184-1.014c-0.044-0.029-0.086-0.052-0.127-0.067
												c-0.048-0.018-0.095-0.027-0.143-0.025c-0.077,0.007-0.156,0.032-0.233,0.084l-0.007-0.003
												c0.005-0.216-0.084-0.413-0.254-0.531c-0.045-0.035-0.088-0.058-0.128-0.074c-0.151-0.057-0.272,0-0.346,0.058
												l-0.005-0.011l0.061-0.231L54.208,89.942"/>
										</g>
									</g>
								</g>
							</g>
						</g>
					</g>
				</g>
				<path opacity="0.2" fill="#FFFFFF" d="M53.773,89.974c-0.183-0.032-0.362-0.133-0.362-0.133s-0.698,0.914-0.128,2.351
					c0.372,0.096,0.719,0.067,1.021-0.04C53.778,91.583,53.443,90.854,53.773,89.974z M53.517,92.679
					c0.206,0.361,0.487,0.751,0.883,1.162c0.413,0.196,1.436,0.103,1.931-0.268c-0.251-0.157-1.042-0.531-1.697-1.104
					C54.231,92.641,53.841,92.688,53.517,92.679z M54.91,92.327c0.771,0.595,1.405,0.909,1.405,0.909l0.549-0.876
					c0,0-0.675-0.194-1.289-0.597C55.365,92.009,55.137,92.191,54.91,92.327z M54.509,92c0.019,0.011,0.033,0.028,0.05,0.044
					c0.28-0.142,0.514-0.333,0.701-0.513c-0.393-0.331-0.695-0.764-0.662-1.306c-0.173,0.017-0.492-0.175-0.492-0.175
					S53.568,91.193,54.509,92z"/>
			</g>
			<defs>
				<filter id="Adobe_OpacityMaskFilter_26_" filterUnits="userSpaceOnUse" x="62.005" y="13.908" width="48.553" height="33.703">
					<feColorMatrix  type="matrix" values="1 0 0 0 0  0 1 0 0 0  0 0 1 0 0  0 0 0 1 0"/>
				</filter>
			</defs>
			<mask maskUnits="userSpaceOnUse" x="62.005" y="13.908" width="48.553" height="33.703" id="SVGID_123_">
				<g filter="url(#Adobe_OpacityMaskFilter_26_)">
					
						<radialGradient id="SVGID_124_" cx="0.6636" cy="135.9277" r="11.7724" gradientTransform="matrix(0.9833 -0.1819 0.1163 0.6286 82.8671 -68.8893)" gradientUnits="userSpaceOnUse">
						<stop  offset="0" style="stop-color:#FFFFFF"/>
						<stop  offset="1" style="stop-color:#000000"/>
					</radialGradient>
					<path fill="url(#SVGID_124_)" d="M113.712,13.771c0.512,2.759-5.515,6.188-13.458,7.659c-7.948,1.466-14.8,0.425-15.313-2.336
						c-0.51-2.757,5.517-6.186,13.463-7.654C106.348,9.967,113.204,11.013,113.712,13.771z"/>
					
						<radialGradient id="SVGID_125_" cx="-72.0522" cy="136.2246" r="11.7708" gradientTransform="matrix(0.623 -0.7822 0.5001 0.3983 47.757 -77.5477)" gradientUnits="userSpaceOnUse">
						<stop  offset="0" style="stop-color:#FFFFFF"/>
						<stop  offset="1" style="stop-color:#000000"/>
					</radialGradient>
					<path fill="url(#SVGID_125_)" d="M80.108,21.626c2.196,1.746-0.107,8.286-5.14,14.606c-5.035,6.32-10.895,10.028-13.088,8.279
						c-2.196-1.749,0.109-8.288,5.143-14.607C72.057,23.583,77.914,19.877,80.108,21.626z"/>
				</g>
			</mask>
			<path mask="url(#SVGID_123_)" fill="none" stroke="#FFFFFF" stroke-width="1.2225" d="M110.428,15.399
				C77.467,8.211,62.577,47.394,62.577,47.394"/>
			<defs>
				<filter id="Adobe_OpacityMaskFilter_27_" filterUnits="userSpaceOnUse" x="92.257" y="81.2" width="23.631" height="15.083">
					<feColorMatrix  type="matrix" values="1 0 0 0 0  0 1 0 0 0  0 0 1 0 0  0 0 0 1 0"/>
				</filter>
			</defs>
			<mask maskUnits="userSpaceOnUse" x="92.257" y="81.2" width="23.631" height="15.083" id="SVGID_126_">
				<g filter="url(#Adobe_OpacityMaskFilter_27_)">
					
						<linearGradient id="SVGID_127_" gradientUnits="userSpaceOnUse" x1="52.7095" y1="143.8506" x2="52.9699" y2="154.4434" gradientTransform="matrix(0.9736 0.2282 -0.2282 0.9736 85.7996 -73.9773)">
						<stop  offset="0" style="stop-color:#FFFFFF"/>
						<stop  offset="1" style="stop-color:#000000"/>
					</linearGradient>
					<polygon fill="url(#SVGID_127_)" points="114.003,102.405 85.259,95.67 90.592,72.93 119.333,79.667 					"/>
				</g>
			</mask>
			<path opacity="0.47" mask="url(#SVGID_126_)" fill="#FFFFFF" d="M110.64,84.048c-5.462-1.815-16.726-2.848-16.726-2.848
				s-0.791,2.337-1.657,4.982c1.833,5.879,6.186,10.036,11.314,10.1c5.945,0.074,10.985-5.371,12.316-12.715
				C114.733,84.361,113.035,84.845,110.64,84.048z"/>
			
				<linearGradient id="SVGID_128_" gradientUnits="userSpaceOnUse" x1="51.3384" y1="129.9141" x2="44.6315" y2="162.4716" gradientTransform="matrix(0.9736 0.2282 -0.2282 0.9736 85.7996 -73.9773)">
				<stop  offset="0" style="stop-color:#6D6C6D"/>
				<stop  offset="1" style="stop-color:#000000"/>
			</linearGradient>
			<path fill="url(#SVGID_128_)" d="M111.981,80.458c-0.122,9.689-6.165,17.47-13.499,17.375
				c-7.333-0.092-13.181-8.021-13.062-17.71c0.124-9.688,6.168-17.467,13.502-17.375C106.257,62.839,112.102,70.769,111.981,80.458z
				"/>
			
				<linearGradient id="SVGID_129_" gradientUnits="userSpaceOnUse" x1="46.8657" y1="152.3447" x2="46.0843" y2="140.3637" gradientTransform="matrix(0.9734 0.2394 -0.2288 1.0245 85.7286 -80.0879)">
				<stop  offset="0" style="stop-color:#6D6C6D"/>
				<stop  offset="1" style="stop-color:#000000"/>
			</linearGradient>
			<path fill="url(#SVGID_129_)" d="M105.843,80.79c-0.081,6.385-3.866,11.513-8.461,11.456c-4.59-0.06-8.248-5.28-8.169-11.665
				c0.081-6.38,3.868-11.509,8.464-11.45C102.267,69.187,105.924,74.409,105.843,80.79z"/>
			
				<linearGradient id="SVGID_130_" gradientUnits="userSpaceOnUse" x1="50.5601" y1="154.1104" x2="43.0055" y2="138.7405" gradientTransform="matrix(0.9734 0.2394 -0.2288 1.0245 85.7286 -80.0879)">
				<stop  offset="0" style="stop-color:#6D6C6D"/>
				<stop  offset="1" style="stop-color:#000000"/>
			</linearGradient>
			<path fill="url(#SVGID_130_)" d="M103.681,80.91c-0.064,5.171-2.796,9.333-6.098,9.293c-3.302-0.042-5.927-4.271-5.863-9.445
				c0.065-5.174,2.796-9.334,6.098-9.295C101.124,71.507,103.747,75.734,103.681,80.91z"/>
			<path opacity="0.2" fill="#FFFFFF" d="M98.536,63.087c0,0,11.051,0.515,11.907,14.563
				C108.851,69.316,105.566,65.204,98.536,63.087z"/>
			<path opacity="0.2" fill="#FFFFFF" d="M88.514,79.601c0,0-0.398,10.074,5.932,12.358C89.345,90.841,87.721,83.661,88.514,79.601z
				"/>
			<path opacity="0.15" fill="#FFFFFF" d="M59.333,46.364c-1.057,0.584-2.078,1.18-3.066,1.786c-1.106,3.363-2.639,9.4-3.526,15.822
				c2.441-1.108,5.105-2.149,7.847-3.116c0.815-4.514,2.001-8.892,3.506-12.026C63.857,48.579,61.368,47.339,59.333,46.364z
				 M64.139,48.239c0,0,0.82-2.192,2.505-5.424c-2.37,0.995-4.626,2.086-6.752,3.239L64.139,48.239z M76.079,20.465
				c-5.977,4.429-11.549,10.993-16.332,20.081c3.164-0.912,6.406-1.735,9.597-2.468c3.855-6.178,9.902-13.698,18.323-18.102
				C83.668,19.611,79.795,19.824,76.079,20.465z"/>
			<g opacity="0.5">
				<g>
					
						<linearGradient id="SVGID_131_" gradientUnits="userSpaceOnUse" x1="59.9155" y1="105.0659" x2="59.8361" y2="104.0207" gradientTransform="matrix(0.9736 0.2282 -0.2282 0.9736 85.7996 -73.9773)">
						<stop  offset="0" style="stop-color:#FFFFFF"/>
						<stop  offset="1" style="stop-color:#000000"/>
					</linearGradient>
					<path fill="url(#SVGID_131_)" d="M120.1,40.981l-0.188,0.162c-0.054,0.112-0.061,0.255-0.015,0.396
						c0.076,0.25,0.295,0.396,0.49,0.331l0.19-0.165c0.007-0.011,0.01-0.025,0.016-0.036c0.041-0.106,0.045-0.234,0.004-0.358
						c-0.046-0.137-0.136-0.25-0.248-0.308L120.1,40.981z M120.094,41.473c-0.029-0.085-0.025-0.172,0.006-0.233l0.065-0.061
						l0.089,0.011c0.063,0.03,0.115,0.101,0.143,0.187l0,0c0.028,0.084,0.026,0.172-0.01,0.234l-0.062,0.062
						C120.255,41.694,120.14,41.619,120.094,41.473z M120.597,41.311L120.597,41.311L120.597,41.311z"/>
				</g>
				<path d="M120.514,41.349c0.06,0.192-0.004,0.383-0.14,0.428c-0.139,0.045-0.304-0.074-0.365-0.266
					c-0.063-0.191,0-0.382,0.142-0.428C120.287,41.039,120.453,41.159,120.514,41.349z"/>
			</g>
			<g opacity="0.5">
				<g>
					
						<linearGradient id="SVGID_132_" gradientUnits="userSpaceOnUse" x1="1.7534" y1="125.7412" x2="1.6714" y2="124.6614" gradientTransform="matrix(0.9736 0.2282 -0.2282 0.9736 85.7996 -73.9773)">
						<stop  offset="0" style="stop-color:#FFFFFF"/>
						<stop  offset="1" style="stop-color:#000000"/>
					</linearGradient>
					<path fill="url(#SVGID_132_)" d="M59.078,47.836l-0.25,0.005c-0.114,0.048-0.212,0.155-0.266,0.29
						c-0.1,0.244-0.027,0.496,0.161,0.575l0.253-0.008c0.011-0.005,0.026-0.013,0.034-0.018c0.102-0.057,0.184-0.15,0.233-0.271
						c0.054-0.136,0.057-0.28,0.01-0.396L59.078,47.836z M58.755,48.209c0.031-0.083,0.092-0.147,0.156-0.174l0.087-0.004
						l0.061,0.065c0.028,0.064,0.024,0.151-0.012,0.235l0,0c-0.031,0.083-0.093,0.148-0.154,0.176l-0.091,0.004
						C58.732,48.483,58.697,48.351,58.755,48.209z M59.244,48.409L59.244,48.409L59.244,48.409z"/>
				</g>
				<path d="M59.155,48.384c-0.077,0.187-0.247,0.295-0.381,0.24c-0.137-0.056-0.182-0.25-0.107-0.438
					c0.074-0.187,0.247-0.293,0.379-0.238C59.183,48.001,59.23,48.199,59.155,48.384z"/>
			</g>
		</g>
	</g>
	<path opacity="0.4" d="M69.023,71.159c0,0,7.978-56.907,51.962-41.208c-1.751-1.357-4.331-3.32-7.054-4.676
		c-3.893-0.387-39.555-11.484-51.04,42.396C65.666,68.833,66.541,68.979,69.023,71.159z"/>
</g>
</svg>
